G04*
G04 #@! TF.GenerationSoftware,Altium Limited,Altium Designer,22.9.1 (49)*
G04*
G04 Layer_Color=65535*
%FSLAX44Y44*%
%MOMM*%
G71*
G04*
G04 #@! TF.SameCoordinates,63DD9504-EA5A-40A3-A547-44A0B6CD77F8*
G04*
G04*
G04 #@! TF.FilePolarity,Positive*
G04*
G01*
G75*
%ADD10C,0.2500*%
%ADD11C,0.5080*%
%ADD12C,0.2000*%
%ADD13C,0.2540*%
%ADD14C,0.1524*%
%ADD15C,0.1000*%
%ADD16C,0.1270*%
D10*
X519000Y667500D02*
G03*
X519000Y667500I-1250J0D01*
G01*
X655500Y1105250D02*
G03*
X655500Y1105250I-1250J0D01*
G01*
X96000Y804250D02*
G03*
X96000Y804250I-1250J0D01*
G01*
X547000Y94750D02*
G03*
X547000Y94750I-1250J0D01*
G01*
X1106500Y595750D02*
G03*
X1106500Y595750I-1250J0D01*
G01*
X96000Y604250D02*
G03*
X96000Y604250I-1250J0D01*
G01*
X640750Y955000D02*
G03*
X640750Y955000I-1250J0D01*
G01*
X206250Y789500D02*
G03*
X206250Y789500I-1250J0D01*
G01*
X571750Y210000D02*
G03*
X571750Y210000I-1250J0D01*
G01*
X966250Y470500D02*
G03*
X966250Y470500I-1250J0D01*
G01*
X226250Y584500D02*
G03*
X226250Y584500I-1250J0D01*
G01*
X97750Y200000D02*
G03*
X97750Y200000I-1250J0D01*
G01*
Y250000D02*
G03*
X97750Y250000I-1250J0D01*
G01*
Y300000D02*
G03*
X97750Y300000I-1250J0D01*
G01*
Y350000D02*
G03*
X97750Y350000I-1250J0D01*
G01*
X990150Y181300D02*
G03*
X990150Y181300I-1250J0D01*
G01*
D11*
X869520Y800000D02*
G03*
X869520Y800000I-3810J0D01*
G01*
X991910Y1100000D02*
G03*
X991910Y1100000I-3810J0D01*
G01*
D12*
X379400Y752025D02*
G03*
X379400Y752025I-1000J0D01*
G01*
X785800Y447975D02*
G03*
X785800Y447975I-1000J0D01*
G01*
X448975Y415200D02*
G03*
X448975Y415200I-1000J0D01*
G01*
X753025Y821600D02*
G03*
X753025Y821600I-1000J0D01*
G01*
X218500Y140040D02*
G03*
X218500Y140040I-1000J0D01*
G01*
X590661Y968352D02*
G03*
X629337Y968355I19339J-13352D01*
G01*
X191649Y740661D02*
G03*
X191645Y779337I13352J19339D01*
G01*
X619339Y196649D02*
G03*
X580663Y196645I-19339J13352D01*
G01*
X978352Y519339D02*
G03*
X978355Y480663I-13352J-19339D01*
G01*
X211649Y535661D02*
G03*
X211645Y574337I13352J19339D01*
G01*
X533500Y666500D02*
X666500D01*
Y533500D02*
Y666500D01*
X533500Y533500D02*
X666500D01*
X533500D02*
Y666500D01*
X530000Y860939D02*
Y881061D01*
X513000Y860939D02*
Y881061D01*
X563000Y860939D02*
Y881061D01*
X546000Y860939D02*
Y881061D01*
X686250Y862689D02*
Y882811D01*
X669250Y862689D02*
Y882811D01*
X329939Y711500D02*
X350061D01*
X329939Y694500D02*
X350061D01*
X329939Y532750D02*
X350061D01*
X329939Y515750D02*
X350061D01*
X470250Y331689D02*
Y351811D01*
X487250Y331689D02*
Y351811D01*
X729250Y863439D02*
Y883561D01*
X712250Y863439D02*
Y883561D01*
X328939Y579500D02*
X349061D01*
X328939Y562500D02*
X349061D01*
X329939Y482750D02*
X350061D01*
X329939Y465750D02*
X350061D01*
X604250Y332439D02*
Y352561D01*
X621250Y332439D02*
Y352561D01*
X327689Y803250D02*
X347811D01*
X327689Y786250D02*
X347811D01*
X598250Y861439D02*
Y881561D01*
X581250Y861439D02*
Y881561D01*
X494250Y860189D02*
Y880311D01*
X477250Y860189D02*
Y880311D01*
X850000Y658000D02*
X854500D01*
X850000Y672500D02*
X854500D01*
X380439Y200439D02*
Y228561D01*
X398561Y200439D02*
Y228561D01*
X425189Y200439D02*
Y228561D01*
X443311Y200439D02*
Y228561D01*
X473939Y200439D02*
Y228561D01*
X492061Y200439D02*
Y228561D01*
X53750Y204500D02*
X56250D01*
X53750Y195500D02*
X56250D01*
X53750Y254500D02*
X56250D01*
X53750Y245500D02*
X56250D01*
X53750Y304500D02*
X56250D01*
X53750Y295500D02*
X56250D01*
X53750Y354500D02*
X56250D01*
X53750Y345500D02*
X56250D01*
X683561Y935669D02*
Y959791D01*
X666439Y935669D02*
Y959791D01*
X557939Y1008561D02*
X582061D01*
X557939Y991439D02*
X582061D01*
X197939Y838561D02*
X222061D01*
X197939Y821439D02*
X222061D01*
X151439Y712939D02*
Y737061D01*
X168561Y712939D02*
Y737061D01*
X536439Y207939D02*
Y232061D01*
X553561Y207939D02*
Y232061D01*
X617939Y146439D02*
X642061D01*
X617939Y163561D02*
X642061D01*
X947939Y421439D02*
X972061D01*
X947939Y438561D02*
X972061D01*
X1028561Y512939D02*
Y537061D01*
X1011439Y512939D02*
Y537061D01*
X216439Y617939D02*
Y642061D01*
X233561Y617939D02*
Y642061D01*
X156439Y507939D02*
Y532061D01*
X173561Y507939D02*
Y532061D01*
X326439Y739439D02*
X350561D01*
X326439Y756561D02*
X350561D01*
X989800Y690350D02*
X1016700D01*
X989800Y636550D02*
Y690350D01*
Y636550D02*
X1016700D01*
Y690350D01*
X919800Y751400D02*
X946700D01*
X919800Y697600D02*
Y751400D01*
Y697600D02*
X946700D01*
Y751400D01*
X990939Y230939D02*
Y259061D01*
X1009061Y230939D02*
Y259061D01*
X965939Y230939D02*
Y259061D01*
X984061Y230939D02*
Y259061D01*
X935939Y230939D02*
Y259061D01*
X954061Y230939D02*
Y259061D01*
X905939Y230939D02*
Y259061D01*
X924061Y230939D02*
Y259061D01*
X875939Y230939D02*
Y259061D01*
X894061Y230939D02*
Y259061D01*
X845939Y230939D02*
Y259061D01*
X864061Y230939D02*
Y259061D01*
X815939Y230939D02*
Y259061D01*
X834061Y230939D02*
Y259061D01*
X785939Y230939D02*
Y259061D01*
X804061Y230939D02*
Y259061D01*
X1069939Y869689D02*
Y897811D01*
X1088061Y869689D02*
Y897811D01*
X1113439Y869689D02*
Y897811D01*
X1131561Y869689D02*
Y897811D01*
X626709Y857959D02*
Y886541D01*
X645291Y857959D02*
Y886541D01*
X431459Y857209D02*
Y885791D01*
X450041Y857209D02*
Y885791D01*
X550500Y1071250D02*
Y1128750D01*
X649500D01*
Y1071250D02*
Y1128750D01*
X71250Y700500D02*
X128750D01*
X71250D02*
Y799500D01*
X128750D01*
X649500Y71250D02*
Y128750D01*
X550500Y71250D02*
X649500D01*
X550500D02*
Y128750D01*
X1071250Y699500D02*
X1128750D01*
Y600500D02*
Y699500D01*
X1071250Y600500D02*
X1128750D01*
X71250Y500500D02*
X128750D01*
X71250D02*
Y599500D01*
X128750D01*
X590663Y968350D02*
X629337D01*
X191650Y740663D02*
Y779337D01*
X580663Y196650D02*
X619337D01*
X978350Y480663D02*
Y519337D01*
X211650Y535663D02*
Y574337D01*
X123750Y191500D02*
X136250D01*
X123750Y208500D02*
X136250D01*
X123750Y241500D02*
X136250D01*
X123750Y258500D02*
X136250D01*
X123750Y291500D02*
X136250D01*
X123750Y308500D02*
X136250D01*
X123750Y341500D02*
X136250D01*
X123750Y358500D02*
X136250D01*
X998300Y85250D02*
X1010450D01*
X972900D02*
X979500D01*
X947500D02*
X954100D01*
X922100D02*
X928700D01*
X896700D02*
X903300D01*
X871300D02*
X877900D01*
X845900D02*
X852500D01*
X820500D02*
X827100D01*
X789550D02*
X801700D01*
X789550D02*
Y154750D01*
X998300D02*
X1010450D01*
X972900D02*
X979500D01*
X947500D02*
X954100D01*
X922100D02*
X928700D01*
X896700D02*
X903300D01*
X871300D02*
X877900D01*
X845900D02*
X852500D01*
X820500D02*
X827100D01*
X789550D02*
X801700D01*
X1010450Y85250D02*
Y154750D01*
D13*
X360000Y74000D02*
X372000D01*
X360000D02*
X362000Y76000D01*
X370000D01*
X366000Y72000D02*
X370000Y76000D01*
X366000Y72000D02*
Y80000D01*
X358000Y72000D02*
X374000D01*
X366000Y80000D02*
X374000Y72000D01*
X366000Y80000D02*
X366000D01*
X358000Y72000D02*
X366000Y80000D01*
X182828Y900740D02*
X185368Y903279D01*
Y908357D01*
X182828Y910896D01*
X172672D01*
X170133Y908357D01*
Y903279D01*
X172672Y900740D01*
X177750D01*
Y905818D01*
X170133Y895661D02*
X185368D01*
X170133Y885505D01*
X185368D01*
Y880426D02*
X170133D01*
Y872809D01*
X172672Y870270D01*
X182828D01*
X185368Y872809D01*
Y880426D01*
Y849956D02*
Y844878D01*
Y847417D01*
X170133D01*
Y849956D01*
Y844878D01*
Y837260D02*
X185368D01*
X170133Y827104D01*
X185368D01*
X182078Y1020490D02*
X184618Y1023029D01*
Y1028107D01*
X182078Y1030646D01*
X171922D01*
X169382Y1028107D01*
Y1023029D01*
X171922Y1020490D01*
X177000D01*
Y1025568D01*
X169382Y1015411D02*
X184618D01*
X169382Y1005255D01*
X184618D01*
Y1000176D02*
X169382D01*
Y992559D01*
X171922Y990020D01*
X182078D01*
X184618Y992559D01*
Y1000176D01*
Y969706D02*
Y964628D01*
Y967167D01*
X169382D01*
Y969706D01*
Y964628D01*
Y957010D02*
X184618D01*
X169382Y946853D01*
X184618D01*
X133078Y978494D02*
X135618Y975955D01*
Y970877D01*
X133078Y968338D01*
X130539D01*
X128000Y970877D01*
Y973416D01*
Y970877D01*
X125461Y968338D01*
X122922D01*
X120382Y970877D01*
Y975955D01*
X122922Y978494D01*
X120382Y963259D02*
X122922D01*
Y960720D01*
X120382D01*
Y963259D01*
X133078Y950563D02*
X135618Y948024D01*
Y942946D01*
X133078Y940407D01*
X130539D01*
X128000Y942946D01*
Y945485D01*
Y942946D01*
X125461Y940407D01*
X122922D01*
X120382Y942946D01*
Y948024D01*
X122922Y950563D01*
X135618Y935328D02*
X125461D01*
X120382Y930250D01*
X125461Y925172D01*
X135618D01*
Y904858D02*
Y899780D01*
Y902319D01*
X120382D01*
Y904858D01*
Y899780D01*
Y892162D02*
X135618D01*
X120382Y882006D01*
X135618D01*
X136868Y1079372D02*
Y1089529D01*
X129250D01*
X131789Y1084451D01*
Y1081911D01*
X129250Y1079372D01*
X124172D01*
X121632Y1081911D01*
Y1086990D01*
X124172Y1089529D01*
X136868Y1074294D02*
X126711D01*
X121632Y1069215D01*
X126711Y1064137D01*
X136868D01*
Y1043824D02*
Y1038745D01*
Y1041284D01*
X121632D01*
Y1043824D01*
Y1038745D01*
Y1031128D02*
X136868D01*
X121632Y1020971D01*
X136868D01*
X894133Y702858D02*
Y692701D01*
X909368D01*
Y702858D01*
X901750Y692701D02*
Y697780D01*
X909368Y707937D02*
X894133D01*
Y715554D01*
X896672Y718093D01*
X901750D01*
X904289Y715554D01*
Y707937D01*
Y713015D02*
X909368Y718093D01*
Y723172D02*
X899211D01*
X894133Y728250D01*
X899211Y733328D01*
X909368D01*
X901750D01*
Y723172D01*
X896672Y748563D02*
X894133Y746024D01*
Y740946D01*
X896672Y738407D01*
X899211D01*
X901750Y740946D01*
Y746024D01*
X904289Y748563D01*
X906828D01*
X909368Y746024D01*
Y740946D01*
X906828Y738407D01*
X894133Y763799D02*
Y753642D01*
X909368D01*
Y763799D01*
X901750Y753642D02*
Y758720D01*
X973118Y628951D02*
X957883D01*
Y636569D01*
X960422Y639108D01*
X965500D01*
X968039Y636569D01*
Y628951D01*
Y634030D02*
X973118Y639108D01*
X957883Y654343D02*
Y644187D01*
X973118D01*
Y654343D01*
X965500Y644187D02*
Y649265D01*
X960422Y669578D02*
X957883Y667039D01*
Y661961D01*
X960422Y659422D01*
X962961D01*
X965500Y661961D01*
Y667039D01*
X968039Y669578D01*
X970578D01*
X973118Y667039D01*
Y661961D01*
X970578Y659422D01*
X957883Y684813D02*
Y674657D01*
X973118D01*
Y684813D01*
X965500Y674657D02*
Y679735D01*
X957883Y689892D02*
Y700049D01*
Y694970D01*
X973118D01*
X218328Y344847D02*
X220868Y347386D01*
Y352464D01*
X218328Y355004D01*
X215789D01*
X213250Y352464D01*
Y347386D01*
X210711Y344847D01*
X208172D01*
X205632Y347386D01*
Y352464D01*
X208172Y355004D01*
X220868Y339769D02*
Y329612D01*
Y334690D01*
X205632D01*
Y324534D02*
X215789D01*
X220868Y319455D01*
X215789Y314377D01*
X205632D01*
X213250D01*
Y324534D01*
X220868Y309298D02*
Y299142D01*
Y304220D01*
X205632D01*
X220868Y294063D02*
X208172D01*
X205632Y291524D01*
Y286446D01*
X208172Y283907D01*
X220868D01*
X218328Y268672D02*
X220868Y271211D01*
Y276289D01*
X218328Y278828D01*
X215789D01*
X213250Y276289D01*
Y271211D01*
X210711Y268672D01*
X208172D01*
X205632Y271211D01*
Y276289D01*
X208172Y278828D01*
X220868Y248358D02*
X205632D01*
Y238202D01*
X220868Y222966D02*
Y233123D01*
X205632D01*
Y222966D01*
X213250Y233123D02*
Y228045D01*
X220868Y217888D02*
X205632D01*
Y210271D01*
X208172Y207731D01*
X218328D01*
X220868Y210271D01*
Y217888D01*
X218328Y192496D02*
X220868Y195035D01*
Y200114D01*
X218328Y202653D01*
X215789D01*
X213250Y200114D01*
Y195035D01*
X210711Y192496D01*
X208172D01*
X205632Y195035D01*
Y200114D01*
X208172Y202653D01*
X770790Y126236D02*
X773329Y128775D01*
X778408D01*
X780947Y126236D01*
Y123697D01*
X778408Y121158D01*
X780947Y118618D01*
Y116079D01*
X778408Y113540D01*
X773329D01*
X770790Y116079D01*
Y118618D01*
X773329Y121158D01*
X770790Y123697D01*
Y126236D01*
X773329Y121158D02*
X778408D01*
X1020290Y115540D02*
X1025368D01*
X1022829D01*
Y130775D01*
X1020290Y128236D01*
X1066133Y140144D02*
Y150300D01*
Y145222D01*
X1081367D01*
X1066133Y162996D02*
Y157918D01*
X1068672Y155379D01*
X1078828D01*
X1081367Y157918D01*
Y162996D01*
X1078828Y165536D01*
X1068672D01*
X1066133Y162996D01*
X1081367Y185849D02*
X1066133D01*
Y193466D01*
X1068672Y196006D01*
X1073750D01*
X1076289Y193466D01*
Y185849D01*
X1066133Y208701D02*
Y203623D01*
X1068672Y201084D01*
X1078828D01*
X1081367Y203623D01*
Y208701D01*
X1078828Y211241D01*
X1068672D01*
X1066133Y208701D01*
Y216319D02*
X1081367D01*
X1076289Y221397D01*
X1081367Y226476D01*
X1066133D01*
Y241711D02*
Y231554D01*
X1081367D01*
Y241711D01*
X1073750Y231554D02*
Y236632D01*
X1081367Y246789D02*
X1066133D01*
Y254407D01*
X1068672Y256946D01*
X1073750D01*
X1076289Y254407D01*
Y246789D01*
Y251868D02*
X1081367Y256946D01*
X1066133Y277259D02*
X1081367D01*
Y284877D01*
X1078828Y287416D01*
X1076289D01*
X1073750Y284877D01*
Y277259D01*
Y284877D01*
X1071211Y287416D01*
X1068672D01*
X1066133Y284877D01*
Y277259D01*
Y300112D02*
Y295034D01*
X1068672Y292494D01*
X1078828D01*
X1081367Y295034D01*
Y300112D01*
X1078828Y302651D01*
X1068672D01*
X1066133Y300112D01*
X1081367Y307729D02*
X1071211D01*
X1066133Y312808D01*
X1071211Y317886D01*
X1081367D01*
X1073750D01*
Y307729D01*
X1081367Y322965D02*
X1066133D01*
Y330582D01*
X1068672Y333121D01*
X1073750D01*
X1076289Y330582D01*
Y322965D01*
Y328043D02*
X1081367Y333121D01*
X1066133Y338200D02*
X1081367D01*
Y345817D01*
X1078828Y348356D01*
X1068672D01*
X1066133Y345817D01*
Y338200D01*
X815207Y35078D02*
X812668Y37617D01*
X807590D01*
X805050Y35078D01*
Y32539D01*
X807590Y30000D01*
X812668D01*
X815207Y27461D01*
Y24922D01*
X812668Y22383D01*
X807590D01*
X805050Y24922D01*
X820285Y37617D02*
Y22383D01*
X825364Y27461D01*
X830442Y22383D01*
Y37617D01*
X835521D02*
X840599D01*
X838060D01*
Y22383D01*
X835521D01*
X840599D01*
X848216Y37617D02*
X858373D01*
X853295D01*
Y22383D01*
X873608Y35078D02*
X871069Y37617D01*
X865991D01*
X863452Y35078D01*
Y24922D01*
X865991Y22383D01*
X871069D01*
X873608Y24922D01*
X878687Y37617D02*
Y22383D01*
Y30000D01*
X888843D01*
Y37617D01*
Y22383D01*
X909157Y37617D02*
X914235D01*
X911696D01*
Y22383D01*
X909157D01*
X914235D01*
X921853D02*
Y37617D01*
X932009Y22383D01*
Y37617D01*
X937088Y22383D02*
Y37617D01*
X944705D01*
X947244Y35078D01*
Y30000D01*
X944705Y27461D01*
X937088D01*
X952323Y37617D02*
Y24922D01*
X954862Y22383D01*
X959940D01*
X962479Y24922D01*
Y37617D01*
X967558D02*
X977715D01*
X972636D01*
Y22383D01*
X992950Y35078D02*
X990410Y37617D01*
X985332D01*
X982793Y35078D01*
Y32539D01*
X985332Y30000D01*
X990410D01*
X992950Y27461D01*
Y24922D01*
X990410Y22383D01*
X985332D01*
X982793Y24922D01*
X504781Y1053617D02*
Y1038382D01*
X512398D01*
X514938Y1040922D01*
Y1051078D01*
X512398Y1053617D01*
X504781D01*
X520016Y1038382D02*
Y1053617D01*
X527633D01*
X530173Y1051078D01*
Y1046000D01*
X527633Y1043461D01*
X520016D01*
X525094D02*
X530173Y1038382D01*
X535251Y1053617D02*
X540329D01*
X537790D01*
Y1038382D01*
X535251D01*
X540329D01*
X547947Y1053617D02*
Y1043461D01*
X553025Y1038382D01*
X558104Y1043461D01*
Y1053617D01*
X573339D02*
X563182D01*
Y1038382D01*
X573339D01*
X563182Y1046000D02*
X568260D01*
X593652Y1038382D02*
Y1053617D01*
X598730Y1048539D01*
X603809Y1053617D01*
Y1038382D01*
X616505Y1053617D02*
X611426D01*
X608887Y1051078D01*
Y1040922D01*
X611426Y1038382D01*
X616505D01*
X619044Y1040922D01*
Y1051078D01*
X616505Y1053617D01*
X624122D02*
X634279D01*
X629201D01*
Y1038382D01*
X646975Y1053617D02*
X641897D01*
X639357Y1051078D01*
Y1040922D01*
X641897Y1038382D01*
X646975D01*
X649514Y1040922D01*
Y1051078D01*
X646975Y1053617D01*
X654592Y1038382D02*
Y1053617D01*
X662210D01*
X664749Y1051078D01*
Y1046000D01*
X662210Y1043461D01*
X654592D01*
X659671D02*
X664749Y1038382D01*
X685062Y1051078D02*
X687602Y1053617D01*
X692680D01*
X695219Y1051078D01*
Y1040922D01*
X692680Y1038382D01*
X687602D01*
X685062Y1040922D01*
Y1051078D01*
X47618Y842680D02*
X32383D01*
Y835062D01*
X34922Y832523D01*
X45078D01*
X47618Y835062D01*
Y842680D01*
X32383Y827445D02*
X47618D01*
Y819827D01*
X45078Y817288D01*
X40000D01*
X37461Y819827D01*
Y827445D01*
Y822367D02*
X32383Y817288D01*
X47618Y812210D02*
Y807132D01*
Y809671D01*
X32383D01*
Y812210D01*
Y807132D01*
X47618Y799514D02*
X37461D01*
X32383Y794436D01*
X37461Y789357D01*
X47618D01*
Y774122D02*
Y784279D01*
X32383D01*
Y774122D01*
X40000Y784279D02*
Y779201D01*
X32383Y753809D02*
X47618D01*
X42539Y748730D01*
X47618Y743652D01*
X32383D01*
X47618Y730956D02*
Y736034D01*
X45078Y738574D01*
X34922D01*
X32383Y736034D01*
Y730956D01*
X34922Y728417D01*
X45078D01*
X47618Y730956D01*
Y723339D02*
Y713182D01*
Y718260D01*
X32383D01*
X47618Y700486D02*
Y705564D01*
X45078Y708103D01*
X34922D01*
X32383Y705564D01*
Y700486D01*
X34922Y697947D01*
X45078D01*
X47618Y700486D01*
X32383Y692868D02*
X47618D01*
Y685251D01*
X45078Y682712D01*
X40000D01*
X37461Y685251D01*
Y692868D01*
Y687790D02*
X32383Y682712D01*
Y662398D02*
Y657320D01*
Y659859D01*
X47618D01*
X45078Y662398D01*
X47618Y645219D02*
X32383D01*
Y637602D01*
X34922Y635062D01*
X45078D01*
X47618Y637602D01*
Y645219D01*
X32383Y629984D02*
X47618D01*
Y622366D01*
X45078Y619827D01*
X40000D01*
X37461Y622366D01*
Y629984D01*
Y624906D02*
X32383Y619827D01*
X47618Y614749D02*
Y609671D01*
Y612210D01*
X32383D01*
Y614749D01*
Y609671D01*
X47618Y602053D02*
X32383D01*
Y594436D01*
X34922Y591896D01*
X37461D01*
X40000Y594436D01*
Y602053D01*
Y594436D01*
X42539Y591896D01*
X45078D01*
X47618Y594436D01*
Y602053D01*
Y586818D02*
X32383D01*
Y579201D01*
X34922Y576661D01*
X37461D01*
X40000Y579201D01*
Y586818D01*
Y579201D01*
X42539Y576661D01*
X45078D01*
X47618Y579201D01*
Y586818D01*
Y571583D02*
X32383D01*
Y561426D01*
X47618Y546191D02*
Y556348D01*
X32383D01*
Y546191D01*
X40000Y556348D02*
Y551270D01*
X32383Y525878D02*
X47618D01*
X42539Y520799D01*
X47618Y515721D01*
X32383D01*
X47618Y503025D02*
Y508103D01*
X45078Y510643D01*
X34922D01*
X32383Y508103D01*
Y503025D01*
X34922Y500486D01*
X45078D01*
X47618Y503025D01*
Y495408D02*
Y485251D01*
Y490329D01*
X32383D01*
X47618Y472555D02*
Y477633D01*
X45078Y480173D01*
X34922D01*
X32383Y477633D01*
Y472555D01*
X34922Y470016D01*
X45078D01*
X47618Y472555D01*
X32383Y464938D02*
X47618D01*
Y457320D01*
X45078Y454781D01*
X40000D01*
X37461Y457320D01*
Y464938D01*
Y459859D02*
X32383Y454781D01*
X742928Y1042383D02*
Y1052539D01*
X750546D01*
X753085Y1050000D01*
Y1042383D01*
X758163D02*
Y1057617D01*
X765781D01*
X768320Y1055078D01*
Y1050000D01*
X765781Y1047461D01*
X758163D01*
X763242D02*
X768320Y1042383D01*
X783555Y1057617D02*
X773398D01*
Y1050000D01*
X778477D01*
X773398D01*
Y1042383D01*
X798790D02*
X788633D01*
X798790Y1052539D01*
Y1055078D01*
X796251Y1057617D01*
X791173D01*
X788633Y1055078D01*
X811486Y1042383D02*
Y1057617D01*
X803868Y1050000D01*
X814025D01*
X819104Y1057617D02*
Y1042383D01*
X829260D01*
X834339Y1055078D02*
X836878Y1057617D01*
X841956D01*
X844495Y1055078D01*
Y1044922D01*
X841956Y1042383D01*
X836878D01*
X834339Y1044922D01*
Y1055078D01*
X849574Y1042383D02*
X854652D01*
X852113D01*
Y1057617D01*
X849574Y1055078D01*
X862270Y1050000D02*
X872426D01*
X867348Y1055078D02*
Y1044922D01*
X892740Y1042383D02*
Y1057617D01*
X897818Y1052539D01*
X902896Y1057617D01*
Y1042383D01*
X915592Y1057617D02*
X910514D01*
X907975Y1055078D01*
Y1044922D01*
X910514Y1042383D01*
X915592D01*
X918131Y1044922D01*
Y1055078D01*
X915592Y1057617D01*
X923210D02*
Y1042383D01*
X930827D01*
X933367Y1044922D01*
Y1055078D01*
X930827Y1057617D01*
X923210D01*
X938445D02*
Y1044922D01*
X940984Y1042383D01*
X946062D01*
X948602Y1044922D01*
Y1057617D01*
X953680D02*
Y1042383D01*
X963837D01*
X979072Y1057617D02*
X968915D01*
Y1042383D01*
X979072D01*
X968915Y1050000D02*
X973994D01*
X1156382Y554781D02*
X1171618D01*
Y562398D01*
X1169078Y564938D01*
X1158922D01*
X1156382Y562398D01*
Y554781D01*
X1171618Y570016D02*
X1156382D01*
Y577633D01*
X1158922Y580173D01*
X1164000D01*
X1166539Y577633D01*
Y570016D01*
Y575094D02*
X1171618Y580173D01*
X1156382Y585251D02*
Y590329D01*
Y587790D01*
X1171618D01*
Y585251D01*
Y590329D01*
X1156382Y597947D02*
X1166539D01*
X1171618Y603025D01*
X1166539Y608103D01*
X1156382D01*
Y623339D02*
Y613182D01*
X1171618D01*
Y623339D01*
X1164000Y613182D02*
Y618260D01*
X1171618Y643652D02*
X1156382D01*
X1161461Y648730D01*
X1156382Y653809D01*
X1171618D01*
X1156382Y666505D02*
Y661426D01*
X1158922Y658887D01*
X1169078D01*
X1171618Y661426D01*
Y666505D01*
X1169078Y669044D01*
X1158922D01*
X1156382Y666505D01*
Y674122D02*
Y684279D01*
Y679201D01*
X1171618D01*
X1156382Y696975D02*
Y691896D01*
X1158922Y689357D01*
X1169078D01*
X1171618Y691896D01*
Y696975D01*
X1169078Y699514D01*
X1158922D01*
X1156382Y696975D01*
X1171618Y704592D02*
X1156382D01*
Y712210D01*
X1158922Y714749D01*
X1164000D01*
X1166539Y712210D01*
Y704592D01*
Y709671D02*
X1171618Y714749D01*
X1158922Y735062D02*
X1156382Y737602D01*
Y742680D01*
X1158922Y745219D01*
X1161461D01*
X1164000Y742680D01*
Y740141D01*
Y742680D01*
X1166539Y745219D01*
X1169078D01*
X1171618Y742680D01*
Y737602D01*
X1169078Y735062D01*
X505781Y37617D02*
Y22383D01*
X513398D01*
X515938Y24922D01*
Y35078D01*
X513398Y37617D01*
X505781D01*
X521016Y22383D02*
Y37617D01*
X528633D01*
X531173Y35078D01*
Y30000D01*
X528633Y27461D01*
X521016D01*
X526094D02*
X531173Y22383D01*
X536251Y37617D02*
X541329D01*
X538790D01*
Y22383D01*
X536251D01*
X541329D01*
X548947Y37617D02*
Y27461D01*
X554025Y22383D01*
X559104Y27461D01*
Y37617D01*
X574339D02*
X564182D01*
Y22383D01*
X574339D01*
X564182Y30000D02*
X569260D01*
X594652Y22383D02*
Y37617D01*
X599730Y32539D01*
X604809Y37617D01*
Y22383D01*
X617505Y37617D02*
X612426D01*
X609887Y35078D01*
Y24922D01*
X612426Y22383D01*
X617505D01*
X620044Y24922D01*
Y35078D01*
X617505Y37617D01*
X625122D02*
X635279D01*
X630201D01*
Y22383D01*
X647975Y37617D02*
X642896D01*
X640357Y35078D01*
Y24922D01*
X642896Y22383D01*
X647975D01*
X650514Y24922D01*
Y35078D01*
X647975Y37617D01*
X655592Y22383D02*
Y37617D01*
X663210D01*
X665749Y35078D01*
Y30000D01*
X663210Y27461D01*
X655592D01*
X660671D02*
X665749Y22383D01*
X696219D02*
X686062D01*
X696219Y32539D01*
Y35078D01*
X693680Y37617D01*
X688602D01*
X686062Y35078D01*
X386451Y37617D02*
Y22383D01*
X394069D01*
X396608Y24922D01*
Y35078D01*
X394069Y37617D01*
X386451D01*
X411843D02*
X401687D01*
Y22383D01*
X411843D01*
X401687Y30000D02*
X406765D01*
X416922Y37617D02*
Y22383D01*
X424539D01*
X427078Y24922D01*
Y27461D01*
X424539Y30000D01*
X416922D01*
X424539D01*
X427078Y32539D01*
Y35078D01*
X424539Y37617D01*
X416922D01*
X432157D02*
Y24922D01*
X434696Y22383D01*
X439774D01*
X442313Y24922D01*
Y37617D01*
X457548Y35078D02*
X455009Y37617D01*
X449931D01*
X447392Y35078D01*
Y24922D01*
X449931Y22383D01*
X455009D01*
X457548Y24922D01*
Y30000D01*
X452470D01*
X214452Y22383D02*
Y37617D01*
X222069D01*
X224608Y35078D01*
Y30000D01*
X222069Y27461D01*
X214452D01*
X219530D02*
X224608Y22383D01*
X239843Y37617D02*
X229687D01*
Y22383D01*
X239843D01*
X229687Y30000D02*
X234765D01*
X255078Y35078D02*
X252539Y37617D01*
X247461D01*
X244922Y35078D01*
Y32539D01*
X247461Y30000D01*
X252539D01*
X255078Y27461D01*
Y24922D01*
X252539Y22383D01*
X247461D01*
X244922Y24922D01*
X270313Y37617D02*
X260157D01*
Y22383D01*
X270313D01*
X260157Y30000D02*
X265235D01*
X275392Y37617D02*
X285548D01*
X280470D01*
Y22383D01*
X172040Y1070103D02*
Y1054868D01*
X179657D01*
X182197Y1057408D01*
Y1067564D01*
X179657Y1070103D01*
X172040D01*
X194893Y1054868D02*
X189814D01*
X187275Y1057408D01*
Y1062486D01*
X189814Y1065025D01*
X194893D01*
X197432Y1062486D01*
Y1059947D01*
X187275D01*
X202510Y1054868D02*
X210128D01*
X212667Y1057408D01*
X210128Y1059947D01*
X205049D01*
X202510Y1062486D01*
X205049Y1065025D01*
X212667D01*
X217745Y1054868D02*
X222824D01*
X220284D01*
Y1065025D01*
X217745D01*
X235519Y1049790D02*
X238059D01*
X240598Y1052329D01*
Y1065025D01*
X232980D01*
X230441Y1062486D01*
Y1057408D01*
X232980Y1054868D01*
X240598D01*
X245676D02*
Y1065025D01*
X253294D01*
X255833Y1062486D01*
Y1054868D01*
X268529D02*
X263450D01*
X260911Y1057408D01*
Y1062486D01*
X263450Y1065025D01*
X268529D01*
X271068Y1062486D01*
Y1059947D01*
X260911D01*
X286303Y1070103D02*
Y1054868D01*
X278685D01*
X276146Y1057408D01*
Y1062486D01*
X278685Y1065025D01*
X286303D01*
X306616Y1070103D02*
Y1054868D01*
X314234D01*
X316773Y1057408D01*
Y1059947D01*
Y1062486D01*
X314234Y1065025D01*
X306616D01*
X321852D02*
Y1057408D01*
X324391Y1054868D01*
X332008D01*
Y1052329D01*
X329469Y1049790D01*
X326930D01*
X332008Y1054868D02*
Y1065025D01*
X352322Y1054868D02*
Y1070103D01*
X362478Y1054868D01*
Y1070103D01*
X370096Y1054868D02*
X375174D01*
X377714Y1057408D01*
Y1062486D01*
X375174Y1065025D01*
X370096D01*
X367557Y1062486D01*
Y1057408D01*
X370096Y1054868D01*
X385331Y1065025D02*
X390409D01*
X392948Y1062486D01*
Y1054868D01*
X385331D01*
X382792Y1057408D01*
X385331Y1059947D01*
X392948D01*
X398027Y1070103D02*
Y1054868D01*
Y1062486D01*
X400566Y1065025D01*
X405644D01*
X408184Y1062486D01*
Y1054868D01*
X428497D02*
Y1070103D01*
X436115D01*
X438654Y1067564D01*
Y1062486D01*
X436115Y1059947D01*
X428497D01*
X446271Y1065025D02*
X451350D01*
X453889Y1062486D01*
Y1054868D01*
X446271D01*
X443732Y1057408D01*
X446271Y1059947D01*
X453889D01*
X464045Y1049790D02*
X466585D01*
X469124Y1052329D01*
Y1065025D01*
X461506D01*
X458967Y1062486D01*
Y1057408D01*
X461506Y1054868D01*
X469124D01*
X481820D02*
X476741D01*
X474202Y1057408D01*
Y1062486D01*
X476741Y1065025D01*
X481820D01*
X484359Y1062486D01*
Y1059947D01*
X474202D01*
X172040Y1089790D02*
Y1105025D01*
X179657D01*
X182197Y1102486D01*
Y1097408D01*
X179657Y1094868D01*
X172040D01*
X177118D02*
X182197Y1089790D01*
X194893D02*
X189814D01*
X187275Y1092329D01*
Y1097408D01*
X189814Y1099947D01*
X194893D01*
X197432Y1097408D01*
Y1094868D01*
X187275D01*
X202510Y1099947D02*
X207589Y1089790D01*
X212667Y1099947D01*
X217745Y1089790D02*
X222824D01*
X220284D01*
Y1099947D01*
X217745D01*
X230441Y1089790D02*
X238059D01*
X240598Y1092329D01*
X238059Y1094868D01*
X232980D01*
X230441Y1097408D01*
X232980Y1099947D01*
X240598D01*
X245676Y1089790D02*
X250755D01*
X248215D01*
Y1099947D01*
X245676D01*
X260911Y1089790D02*
X265990D01*
X268529Y1092329D01*
Y1097408D01*
X265990Y1099947D01*
X260911D01*
X258372Y1097408D01*
Y1092329D01*
X260911Y1089790D01*
X273607D02*
Y1099947D01*
X281225D01*
X283764Y1097408D01*
Y1089790D01*
X304077D02*
X309156D01*
X306616D01*
Y1105025D01*
X304077Y1102486D01*
X316773Y1089790D02*
Y1092329D01*
X319312D01*
Y1089790D01*
X316773D01*
X329469D02*
X334547D01*
X332008D01*
Y1105025D01*
X329469Y1102486D01*
X172040Y1124868D02*
Y1140103D01*
X177118Y1135025D01*
X182197Y1140103D01*
Y1124868D01*
X189814Y1135025D02*
X194893D01*
X197432Y1132486D01*
Y1124868D01*
X189814D01*
X187275Y1127408D01*
X189814Y1129947D01*
X197432D01*
X202510Y1124868D02*
X207589D01*
X205049D01*
Y1135025D01*
X202510D01*
X215206Y1124868D02*
Y1135025D01*
X222824D01*
X225363Y1132486D01*
Y1124868D01*
X245676D02*
Y1140103D01*
X253294D01*
X255833Y1137564D01*
Y1132486D01*
X253294Y1129947D01*
X245676D01*
X260911Y1135025D02*
Y1124868D01*
Y1129947D01*
X263450Y1132486D01*
X265990Y1135025D01*
X268529D01*
X278685Y1124868D02*
X283764D01*
X286303Y1127408D01*
Y1132486D01*
X283764Y1135025D01*
X278685D01*
X276146Y1132486D01*
Y1127408D01*
X278685Y1124868D01*
X301538Y1135025D02*
X293921D01*
X291381Y1132486D01*
Y1127408D01*
X293921Y1124868D01*
X301538D01*
X314234D02*
X309156D01*
X306616Y1127408D01*
Y1132486D01*
X309156Y1135025D01*
X314234D01*
X316773Y1132486D01*
Y1129947D01*
X306616D01*
X321852Y1124868D02*
X329469D01*
X332008Y1127408D01*
X329469Y1129947D01*
X324391D01*
X321852Y1132486D01*
X324391Y1135025D01*
X332008D01*
X337087Y1124868D02*
X344704D01*
X347243Y1127408D01*
X344704Y1129947D01*
X339626D01*
X337087Y1132486D01*
X339626Y1135025D01*
X347243D01*
X352322Y1124868D02*
X357400D01*
X354861D01*
Y1135025D01*
X352322D01*
X365018Y1124868D02*
Y1135025D01*
X372635D01*
X375174Y1132486D01*
Y1124868D01*
X385331Y1119790D02*
X387870D01*
X390409Y1122329D01*
Y1135025D01*
X382792D01*
X380253Y1132486D01*
Y1127408D01*
X382792Y1124868D01*
X390409D01*
X410723Y1140103D02*
Y1124868D01*
X418340D01*
X420880Y1127408D01*
Y1129947D01*
X418340Y1132486D01*
X410723D01*
X418340D01*
X420880Y1135025D01*
Y1137564D01*
X418340Y1140103D01*
X410723D01*
X428497Y1124868D02*
X433575D01*
X436115Y1127408D01*
Y1132486D01*
X433575Y1135025D01*
X428497D01*
X425958Y1132486D01*
Y1127408D01*
X428497Y1124868D01*
X443732Y1135025D02*
X448811D01*
X451350Y1132486D01*
Y1124868D01*
X443732D01*
X441193Y1127408D01*
X443732Y1129947D01*
X451350D01*
X456428Y1135025D02*
Y1124868D01*
Y1129947D01*
X458967Y1132486D01*
X461506Y1135025D01*
X464045D01*
X481820Y1140103D02*
Y1124868D01*
X474202D01*
X471663Y1127408D01*
Y1132486D01*
X474202Y1135025D01*
X481820D01*
X173540Y1176103D02*
Y1160868D01*
X178618Y1165947D01*
X183697Y1160868D01*
Y1176103D01*
X188775Y1160868D02*
Y1176103D01*
X196393D01*
X198932Y1173564D01*
Y1168486D01*
X196393Y1165947D01*
X188775D01*
X204010Y1176103D02*
X209088D01*
X206549D01*
Y1160868D01*
X204010D01*
X209088D01*
X231941D02*
Y1176103D01*
X239559D01*
X242098Y1173564D01*
Y1168486D01*
X239559Y1165947D01*
X231941D01*
X237019D02*
X242098Y1160868D01*
X249715D02*
X254794D01*
X257333Y1163408D01*
Y1168486D01*
X254794Y1171025D01*
X249715D01*
X247176Y1168486D01*
Y1163408D01*
X249715Y1160868D01*
X262411Y1176103D02*
Y1160868D01*
X270029D01*
X272568Y1163408D01*
Y1165947D01*
Y1168486D01*
X270029Y1171025D01*
X262411D01*
X280186Y1160868D02*
X285264D01*
X287803Y1163408D01*
Y1168486D01*
X285264Y1171025D01*
X280186D01*
X277646Y1168486D01*
Y1163408D01*
X280186Y1160868D01*
X303038Y1173564D02*
X300499Y1176103D01*
X295421D01*
X292881Y1173564D01*
Y1163408D01*
X295421Y1160868D01*
X300499D01*
X303038Y1163408D01*
X308116Y1171025D02*
Y1163408D01*
X310656Y1160868D01*
X318273D01*
Y1171025D01*
X323352Y1155790D02*
Y1171025D01*
X330969D01*
X333508Y1168486D01*
Y1163408D01*
X330969Y1160868D01*
X323352D01*
X363978Y1173564D02*
X361439Y1176103D01*
X356361D01*
X353822Y1173564D01*
Y1171025D01*
X356361Y1168486D01*
X361439D01*
X363978Y1165947D01*
Y1163408D01*
X361439Y1160868D01*
X356361D01*
X353822Y1163408D01*
X379213Y1173564D02*
X376674Y1176103D01*
X371596D01*
X369057Y1173564D01*
Y1171025D01*
X371596Y1168486D01*
X376674D01*
X379213Y1165947D01*
Y1163408D01*
X376674Y1160868D01*
X371596D01*
X369057Y1163408D01*
X384292Y1176103D02*
Y1160868D01*
X394449D01*
X389050Y869870D02*
X383971D01*
X386511D01*
Y857174D01*
X383971Y854635D01*
X381432D01*
X378893Y857174D01*
X394128Y854635D02*
X399206D01*
X396667D01*
Y869870D01*
X394128Y867331D01*
X406824D02*
X409363Y869870D01*
X414441D01*
X416981Y867331D01*
Y857174D01*
X414441Y854635D01*
X409363D01*
X406824Y857174D01*
Y867331D01*
X800351Y204212D02*
X797812Y206751D01*
X792733D01*
X790194Y204212D01*
Y201673D01*
X792733Y199133D01*
X797812D01*
X800351Y196594D01*
Y194055D01*
X797812Y191516D01*
X792733D01*
X790194Y194055D01*
X805429Y206751D02*
Y191516D01*
X810507Y196594D01*
X815586Y191516D01*
Y206751D01*
X820664Y191516D02*
X825742D01*
X823203D01*
Y206751D01*
X820664Y204212D01*
X131318Y543306D02*
Y558541D01*
X138935D01*
X141475Y556002D01*
Y550924D01*
X138935Y548384D01*
X131318D01*
X136396D02*
X141475Y543306D01*
X156710D02*
X146553D01*
X156710Y553463D01*
Y556002D01*
X154171Y558541D01*
X149092D01*
X146553Y556002D01*
X161788Y558541D02*
X171945D01*
Y556002D01*
X161788Y545845D01*
Y543306D01*
X191516Y653288D02*
Y668523D01*
X199133D01*
X201673Y665984D01*
Y660906D01*
X199133Y658366D01*
X191516D01*
X196594D02*
X201673Y653288D01*
X216908D02*
X206751D01*
X216908Y663445D01*
Y665984D01*
X214369Y668523D01*
X209290D01*
X206751Y665984D01*
X232143Y668523D02*
X227064Y665984D01*
X221986Y660906D01*
Y655827D01*
X224525Y653288D01*
X229604D01*
X232143Y655827D01*
Y658366D01*
X229604Y660906D01*
X221986D01*
X1013015Y548241D02*
Y563476D01*
X1020632D01*
X1023172Y560937D01*
Y555858D01*
X1020632Y553319D01*
X1013015D01*
X1018093D02*
X1023172Y548241D01*
X1038407D02*
X1028250D01*
X1038407Y558398D01*
Y560937D01*
X1035868Y563476D01*
X1030789D01*
X1028250Y560937D01*
X1053642Y563476D02*
X1043485D01*
Y555858D01*
X1048564Y558398D01*
X1051103D01*
X1053642Y555858D01*
Y550780D01*
X1051103Y548241D01*
X1046024D01*
X1043485Y550780D01*
X932434Y447294D02*
Y462529D01*
X940051D01*
X942591Y459990D01*
Y454911D01*
X940051Y452372D01*
X932434D01*
X937512D02*
X942591Y447294D01*
X957826D02*
X947669D01*
X957826Y457451D01*
Y459990D01*
X955287Y462529D01*
X950208D01*
X947669Y459990D01*
X970522Y447294D02*
Y462529D01*
X962904Y454911D01*
X973061D01*
X602488Y172212D02*
Y187447D01*
X610106D01*
X612645Y184908D01*
Y179830D01*
X610106Y177290D01*
X602488D01*
X607566D02*
X612645Y172212D01*
X627880D02*
X617723D01*
X627880Y182369D01*
Y184908D01*
X625341Y187447D01*
X620262D01*
X617723Y184908D01*
X632958D02*
X635497Y187447D01*
X640576D01*
X643115Y184908D01*
Y182369D01*
X640576Y179830D01*
X638036D01*
X640576D01*
X643115Y177290D01*
Y174751D01*
X640576Y172212D01*
X635497D01*
X632958Y174751D01*
X511302Y243078D02*
Y258313D01*
X518919D01*
X521459Y255774D01*
Y250695D01*
X518919Y248156D01*
X511302D01*
X516380D02*
X521459Y243078D01*
X536694D02*
X526537D01*
X536694Y253235D01*
Y255774D01*
X534155Y258313D01*
X529076D01*
X526537Y255774D01*
X551929Y243078D02*
X541772D01*
X551929Y253235D01*
Y255774D01*
X549390Y258313D01*
X544311D01*
X541772Y255774D01*
X131572Y748284D02*
Y763519D01*
X139190D01*
X141729Y760980D01*
Y755901D01*
X139190Y753362D01*
X131572D01*
X136650D02*
X141729Y748284D01*
X156964D02*
X146807D01*
X156964Y758441D01*
Y760980D01*
X154425Y763519D01*
X149346D01*
X146807Y760980D01*
X162042Y748284D02*
X167120D01*
X164581D01*
Y763519D01*
X162042Y760980D01*
X197104Y847090D02*
Y862325D01*
X204722D01*
X207261Y859786D01*
Y854707D01*
X204722Y852168D01*
X197104D01*
X202182D02*
X207261Y847090D01*
X222496D02*
X212339D01*
X222496Y857247D01*
Y859786D01*
X219957Y862325D01*
X214878D01*
X212339Y859786D01*
X227574D02*
X230113Y862325D01*
X235192D01*
X237731Y859786D01*
Y849629D01*
X235192Y847090D01*
X230113D01*
X227574Y849629D01*
Y859786D01*
X544830Y1017270D02*
Y1032505D01*
X552448D01*
X554987Y1029966D01*
Y1024887D01*
X552448Y1022348D01*
X544830D01*
X549908D02*
X554987Y1017270D01*
X560065D02*
X565143D01*
X562604D01*
Y1032505D01*
X560065Y1029966D01*
X572761Y1019809D02*
X575300Y1017270D01*
X580378D01*
X582918Y1019809D01*
Y1029966D01*
X580378Y1032505D01*
X575300D01*
X572761Y1029966D01*
Y1027427D01*
X575300Y1024887D01*
X582918D01*
X643890Y970788D02*
Y986023D01*
X651507D01*
X654047Y983484D01*
Y978406D01*
X651507Y975866D01*
X643890D01*
X648968D02*
X654047Y970788D01*
X659125D02*
X664203D01*
X661664D01*
Y986023D01*
X659125Y983484D01*
X671821D02*
X674360Y986023D01*
X679438D01*
X681978Y983484D01*
Y980945D01*
X679438Y978406D01*
X681978Y975866D01*
Y973327D01*
X679438Y970788D01*
X674360D01*
X671821Y973327D01*
Y975866D01*
X674360Y978406D01*
X671821Y980945D01*
Y983484D01*
X674360Y978406D02*
X679438D01*
X453390Y242062D02*
Y257297D01*
X461007D01*
X463547Y254758D01*
Y249680D01*
X461007Y247140D01*
X453390D01*
X458468D02*
X463547Y242062D01*
X468625D02*
X473703D01*
X471164D01*
Y257297D01*
X468625Y254758D01*
X481321Y257297D02*
X491478D01*
Y254758D01*
X481321Y244601D01*
Y242062D01*
X404622D02*
Y257297D01*
X412239D01*
X414779Y254758D01*
Y249680D01*
X412239Y247140D01*
X404622D01*
X409700D02*
X414779Y242062D01*
X419857D02*
X424935D01*
X422396D01*
Y257297D01*
X419857Y254758D01*
X442710Y257297D02*
X437631Y254758D01*
X432553Y249680D01*
Y244601D01*
X435092Y242062D01*
X440171D01*
X442710Y244601D01*
Y247140D01*
X440171Y249680D01*
X432553D01*
X359918Y242062D02*
Y257297D01*
X367536D01*
X370075Y254758D01*
Y249680D01*
X367536Y247140D01*
X359918D01*
X364996D02*
X370075Y242062D01*
X375153D02*
X380231D01*
X377692D01*
Y257297D01*
X375153Y254758D01*
X398006Y257297D02*
X387849D01*
Y249680D01*
X392927Y252219D01*
X395466D01*
X398006Y249680D01*
Y244601D01*
X395466Y242062D01*
X390388D01*
X387849Y244601D01*
X1092962Y911352D02*
Y926587D01*
X1100580D01*
X1103119Y924048D01*
Y918969D01*
X1100580Y916430D01*
X1092962D01*
X1098040D02*
X1103119Y911352D01*
X1108197D02*
X1113275D01*
X1110736D01*
Y926587D01*
X1108197Y924048D01*
X1128511Y911352D02*
Y926587D01*
X1120893Y918969D01*
X1131050D01*
X1049528Y911352D02*
Y926587D01*
X1057145D01*
X1059685Y924048D01*
Y918969D01*
X1057145Y916430D01*
X1049528D01*
X1054606D02*
X1059685Y911352D01*
X1064763D02*
X1069841D01*
X1067302D01*
Y926587D01*
X1064763Y924048D01*
X1077459D02*
X1079998Y926587D01*
X1085077D01*
X1087616Y924048D01*
Y921509D01*
X1085077Y918969D01*
X1082537D01*
X1085077D01*
X1087616Y916430D01*
Y913891D01*
X1085077Y911352D01*
X1079998D01*
X1077459Y913891D01*
X26416Y364236D02*
Y379471D01*
X34034D01*
X36573Y376932D01*
Y371853D01*
X34034Y369314D01*
X26416D01*
X31494D02*
X36573Y364236D01*
X41651D02*
X46729D01*
X44190D01*
Y379471D01*
X41651Y376932D01*
X64504Y364236D02*
X54347D01*
X64504Y374393D01*
Y376932D01*
X61965Y379471D01*
X56886D01*
X54347Y376932D01*
X31496Y314198D02*
Y329433D01*
X39114D01*
X41653Y326894D01*
Y321815D01*
X39114Y319276D01*
X31496D01*
X36574D02*
X41653Y314198D01*
X46731D02*
X51809D01*
X49270D01*
Y329433D01*
X46731Y326894D01*
X59427Y314198D02*
X64505D01*
X61966D01*
Y329433D01*
X59427Y326894D01*
X26416Y264160D02*
Y279395D01*
X34034D01*
X36573Y276856D01*
Y271777D01*
X34034Y269238D01*
X26416D01*
X31494D02*
X36573Y264160D01*
X41651D02*
X46729D01*
X44190D01*
Y279395D01*
X41651Y276856D01*
X54347D02*
X56886Y279395D01*
X61965D01*
X64504Y276856D01*
Y266699D01*
X61965Y264160D01*
X56886D01*
X54347Y266699D01*
Y276856D01*
X39116Y214122D02*
Y229357D01*
X46733D01*
X49273Y226818D01*
Y221740D01*
X46733Y219200D01*
X39116D01*
X44194D02*
X49273Y214122D01*
X54351Y216661D02*
X56890Y214122D01*
X61969D01*
X64508Y216661D01*
Y226818D01*
X61969Y229357D01*
X56890D01*
X54351Y226818D01*
Y224279D01*
X56890Y221740D01*
X64508D01*
X778002Y272796D02*
Y288031D01*
X785620D01*
X788159Y285492D01*
Y280413D01*
X785620Y277874D01*
X778002D01*
X783080D02*
X788159Y272796D01*
X793237Y285492D02*
X795776Y288031D01*
X800855D01*
X803394Y285492D01*
Y282953D01*
X800855Y280413D01*
X803394Y277874D01*
Y275335D01*
X800855Y272796D01*
X795776D01*
X793237Y275335D01*
Y277874D01*
X795776Y280413D01*
X793237Y282953D01*
Y285492D01*
X795776Y280413D02*
X800855D01*
X808228Y272796D02*
Y288031D01*
X815845D01*
X818385Y285492D01*
Y280413D01*
X815845Y277874D01*
X808228D01*
X813306D02*
X818385Y272796D01*
X823463Y288031D02*
X833620D01*
Y285492D01*
X823463Y275335D01*
Y272796D01*
X838200D02*
Y288031D01*
X845817D01*
X848357Y285492D01*
Y280413D01*
X845817Y277874D01*
X838200D01*
X843278D02*
X848357Y272796D01*
X863592Y288031D02*
X858513Y285492D01*
X853435Y280413D01*
Y275335D01*
X855974Y272796D01*
X861053D01*
X863592Y275335D01*
Y277874D01*
X861053Y280413D01*
X853435D01*
X868172Y272796D02*
Y288031D01*
X875789D01*
X878329Y285492D01*
Y280413D01*
X875789Y277874D01*
X868172D01*
X873250D02*
X878329Y272796D01*
X893564Y288031D02*
X883407D01*
Y280413D01*
X888485Y282953D01*
X891025D01*
X893564Y280413D01*
Y275335D01*
X891025Y272796D01*
X885946D01*
X883407Y275335D01*
X898144Y272796D02*
Y288031D01*
X905761D01*
X908301Y285492D01*
Y280413D01*
X905761Y277874D01*
X898144D01*
X903222D02*
X908301Y272796D01*
X920997D02*
Y288031D01*
X913379Y280413D01*
X923536D01*
X928116Y272796D02*
Y288031D01*
X935733D01*
X938273Y285492D01*
Y280413D01*
X935733Y277874D01*
X928116D01*
X933194D02*
X938273Y272796D01*
X943351Y285492D02*
X945890Y288031D01*
X950969D01*
X953508Y285492D01*
Y282953D01*
X950969Y280413D01*
X948429D01*
X950969D01*
X953508Y277874D01*
Y275335D01*
X950969Y272796D01*
X945890D01*
X943351Y275335D01*
X958088Y272796D02*
Y288031D01*
X965705D01*
X968245Y285492D01*
Y280413D01*
X965705Y277874D01*
X958088D01*
X963166D02*
X968245Y272796D01*
X983480D02*
X973323D01*
X983480Y282953D01*
Y285492D01*
X980941Y288031D01*
X975862D01*
X973323Y285492D01*
X988314Y272796D02*
Y288031D01*
X995931D01*
X998471Y285492D01*
Y280413D01*
X995931Y277874D01*
X988314D01*
X993392D02*
X998471Y272796D01*
X1003549D02*
X1008627D01*
X1006088D01*
Y288031D01*
X1003549Y285492D01*
X223009Y597153D02*
Y607310D01*
X220469Y609849D01*
X215391D01*
X212852Y607310D01*
Y597153D01*
X215391Y594614D01*
X220469D01*
X217930Y599692D02*
X223009Y594614D01*
X220469D02*
X223009Y597153D01*
X238244Y609849D02*
X228087D01*
Y602231D01*
X233165Y604771D01*
X235705D01*
X238244Y602231D01*
Y597153D01*
X235705Y594614D01*
X230626D01*
X228087Y597153D01*
X953005Y534923D02*
Y545080D01*
X950465Y547619D01*
X945387D01*
X942848Y545080D01*
Y534923D01*
X945387Y532384D01*
X950465D01*
X947926Y537462D02*
X953005Y532384D01*
X950465D02*
X953005Y534923D01*
X965701Y532384D02*
Y547619D01*
X958083Y540001D01*
X968240D01*
X580820Y244924D02*
Y255081D01*
X578280Y257620D01*
X573202D01*
X570663Y255081D01*
Y244924D01*
X573202Y242385D01*
X578280D01*
X575741Y247463D02*
X580820Y242385D01*
X578280D02*
X580820Y244924D01*
X585898Y255081D02*
X588437Y257620D01*
X593516D01*
X596055Y255081D01*
Y252542D01*
X593516Y250002D01*
X590976D01*
X593516D01*
X596055Y247463D01*
Y244924D01*
X593516Y242385D01*
X588437D01*
X585898Y244924D01*
X212087Y802131D02*
Y812288D01*
X209548Y814827D01*
X204469D01*
X201930Y812288D01*
Y802131D01*
X204469Y799592D01*
X209548D01*
X207008Y804670D02*
X212087Y799592D01*
X209548D02*
X212087Y802131D01*
X227322Y799592D02*
X217165D01*
X227322Y809749D01*
Y812288D01*
X224783Y814827D01*
X219704D01*
X217165Y812288D01*
X597913Y979677D02*
Y989834D01*
X595373Y992373D01*
X590295D01*
X587756Y989834D01*
Y979677D01*
X590295Y977138D01*
X595373D01*
X592834Y982216D02*
X597913Y977138D01*
X595373D02*
X597913Y979677D01*
X602991Y977138D02*
X608069D01*
X605530D01*
Y992373D01*
X602991Y989834D01*
X919988Y761238D02*
Y776473D01*
X927606D01*
X930145Y773934D01*
Y768856D01*
X927606Y766316D01*
X919988D01*
X945380Y761238D02*
X935223D01*
X945380Y771395D01*
Y773934D01*
X942841Y776473D01*
X937762D01*
X935223Y773934D01*
X990169Y700153D02*
Y715388D01*
X997786D01*
X1000326Y712849D01*
Y707770D01*
X997786Y705231D01*
X990169D01*
X1005404Y700153D02*
X1010482D01*
X1007943D01*
Y715388D01*
X1005404Y712849D01*
X369390Y187498D02*
X364311D01*
X366851D01*
Y174802D01*
X364311Y172263D01*
X361772D01*
X359233Y174802D01*
X374468Y184959D02*
X377007Y187498D01*
X382086D01*
X384625Y184959D01*
Y182420D01*
X382086Y179881D01*
X379546D01*
X382086D01*
X384625Y177341D01*
Y174802D01*
X382086Y172263D01*
X377007D01*
X374468Y174802D01*
X1007021Y1142039D02*
X1001943D01*
X1004482D01*
Y1129343D01*
X1001943Y1126804D01*
X999404D01*
X996865Y1129343D01*
X1022256Y1126804D02*
X1012100D01*
X1022256Y1136960D01*
Y1139500D01*
X1019717Y1142039D01*
X1014639D01*
X1012100Y1139500D01*
X872184Y990114D02*
X867105D01*
X869644D01*
Y977418D01*
X867105Y974879D01*
X864566D01*
X862027Y977418D01*
X877262Y974879D02*
X882340D01*
X879801D01*
Y990114D01*
X877262Y987575D01*
X419097Y914649D02*
X408940D01*
Y907031D01*
X414018D01*
X408940D01*
Y899414D01*
X424175Y914649D02*
Y899414D01*
X431793D01*
X434332Y901953D01*
Y904492D01*
X431793Y907031D01*
X424175D01*
X431793D01*
X434332Y909571D01*
Y912110D01*
X431793Y914649D01*
X424175D01*
X449567Y899414D02*
X439410D01*
X449567Y909571D01*
Y912110D01*
X447028Y914649D01*
X441949D01*
X439410Y912110D01*
X637283Y915411D02*
X627126D01*
Y907794D01*
X632204D01*
X627126D01*
Y900176D01*
X642361Y915411D02*
Y900176D01*
X649979D01*
X652518Y902715D01*
Y905254D01*
X649979Y907794D01*
X642361D01*
X649979D01*
X652518Y910333D01*
Y912872D01*
X649979Y915411D01*
X642361D01*
X657596Y900176D02*
X662674D01*
X660135D01*
Y915411D01*
X657596Y912872D01*
X182446Y358001D02*
X167211D01*
Y350383D01*
X169750Y347844D01*
X179907D01*
X182446Y350383D01*
Y358001D01*
X167211Y335148D02*
X182446D01*
X174828Y342766D01*
Y332609D01*
X182446Y308001D02*
X167211D01*
Y300383D01*
X169750Y297844D01*
X179907D01*
X182446Y300383D01*
Y308001D01*
X179907Y292766D02*
X182446Y290227D01*
Y285148D01*
X179907Y282609D01*
X177368D01*
X174829Y285148D01*
Y287688D01*
Y285148D01*
X172289Y282609D01*
X169750D01*
X167211Y285148D01*
Y290227D01*
X169750Y292766D01*
X182446Y258001D02*
X167211D01*
Y250383D01*
X169750Y247844D01*
X179907D01*
X182446Y250383D01*
Y258001D01*
X167211Y232609D02*
Y242766D01*
X177368Y232609D01*
X179907D01*
X182446Y235148D01*
Y240227D01*
X179907Y242766D01*
X182446Y208001D02*
X167211D01*
Y200383D01*
X169750Y197844D01*
X179907D01*
X182446Y200383D01*
Y208001D01*
X167211Y192766D02*
Y187688D01*
Y190227D01*
X182446D01*
X179907Y192766D01*
X464817Y902712D02*
X462277Y905251D01*
X457199D01*
X454660Y902712D01*
Y892555D01*
X457199Y890016D01*
X462277D01*
X464817Y892555D01*
X469895Y890016D02*
X474973D01*
X472434D01*
Y905251D01*
X469895Y902712D01*
X492748Y905251D02*
X482591D01*
Y897634D01*
X487669Y900173D01*
X490209D01*
X492748Y897634D01*
Y892555D01*
X490209Y890016D01*
X485130D01*
X482591Y892555D01*
X592833Y903982D02*
X590294Y906521D01*
X585215D01*
X582676Y903982D01*
Y893825D01*
X585215Y891286D01*
X590294D01*
X592833Y893825D01*
X597911Y891286D02*
X602989D01*
X600450D01*
Y906521D01*
X597911Y903982D01*
X618224Y891286D02*
Y906521D01*
X610607Y898904D01*
X620764D01*
X323593Y777998D02*
X321054Y780537D01*
X315975D01*
X313436Y777998D01*
Y767841D01*
X315975Y765302D01*
X321054D01*
X323593Y767841D01*
X328671Y765302D02*
X333749D01*
X331210D01*
Y780537D01*
X328671Y777998D01*
X341367D02*
X343906Y780537D01*
X348984D01*
X351524Y777998D01*
Y775459D01*
X348984Y772919D01*
X346445D01*
X348984D01*
X351524Y770380D01*
Y767841D01*
X348984Y765302D01*
X343906D01*
X341367Y767841D01*
X319275Y824480D02*
X316735Y827019D01*
X311657D01*
X309118Y824480D01*
Y814323D01*
X311657Y811784D01*
X316735D01*
X319275Y814323D01*
X324353Y811784D02*
X329431D01*
X326892D01*
Y827019D01*
X324353Y824480D01*
X347206Y811784D02*
X337049D01*
X347206Y821941D01*
Y824480D01*
X344666Y827019D01*
X339588D01*
X337049Y824480D01*
X596897Y374900D02*
X594357Y377439D01*
X589279D01*
X586740Y374900D01*
Y364743D01*
X589279Y362204D01*
X594357D01*
X596897Y364743D01*
X601975Y362204D02*
X607053D01*
X604514D01*
Y377439D01*
X601975Y374900D01*
X614671Y362204D02*
X619749D01*
X617210D01*
Y377439D01*
X614671Y374900D01*
X321561Y504186D02*
X319021Y506725D01*
X313943D01*
X311404Y504186D01*
Y494029D01*
X313943Y491490D01*
X319021D01*
X321561Y494029D01*
X326639Y491490D02*
X331717D01*
X329178D01*
Y506725D01*
X326639Y504186D01*
X339335D02*
X341874Y506725D01*
X346953D01*
X349492Y504186D01*
Y494029D01*
X346953Y491490D01*
X341874D01*
X339335Y494029D01*
Y504186D01*
X333245Y600706D02*
X330705Y603245D01*
X325627D01*
X323088Y600706D01*
Y590549D01*
X325627Y588010D01*
X330705D01*
X333245Y590549D01*
X338323D02*
X340862Y588010D01*
X345941D01*
X348480Y590549D01*
Y600706D01*
X345941Y603245D01*
X340862D01*
X338323Y600706D01*
Y598167D01*
X340862Y595628D01*
X348480D01*
X723897Y905760D02*
X721357Y908299D01*
X716279D01*
X713740Y905760D01*
Y895603D01*
X716279Y893064D01*
X721357D01*
X723897Y895603D01*
X728975Y905760D02*
X731514Y908299D01*
X736593D01*
X739132Y905760D01*
Y903221D01*
X736593Y900682D01*
X739132Y898142D01*
Y895603D01*
X736593Y893064D01*
X731514D01*
X728975Y895603D01*
Y898142D01*
X731514Y900682D01*
X728975Y903221D01*
Y905760D01*
X731514Y900682D02*
X736593D01*
X849834Y694837D02*
X847294Y697376D01*
X842216D01*
X839677Y694837D01*
Y684680D01*
X842216Y682141D01*
X847294D01*
X849834Y684680D01*
X854912Y697376D02*
X865069D01*
Y694837D01*
X854912Y684680D01*
Y682141D01*
X470405Y374138D02*
X467865Y376677D01*
X462787D01*
X460248Y374138D01*
Y363981D01*
X462787Y361442D01*
X467865D01*
X470405Y363981D01*
X485640Y376677D02*
X480561Y374138D01*
X475483Y369059D01*
Y363981D01*
X478022Y361442D01*
X483101D01*
X485640Y363981D01*
Y366520D01*
X483101Y369059D01*
X475483D01*
X334261Y553970D02*
X331721Y556509D01*
X326643D01*
X324104Y553970D01*
Y543813D01*
X326643Y541274D01*
X331721D01*
X334261Y543813D01*
X349496Y556509D02*
X339339D01*
Y548891D01*
X344417Y551431D01*
X346957D01*
X349496Y548891D01*
Y543813D01*
X346957Y541274D01*
X341878D01*
X339339Y543813D01*
X334261Y732786D02*
X331721Y735325D01*
X326643D01*
X324104Y732786D01*
Y722629D01*
X326643Y720090D01*
X331721D01*
X334261Y722629D01*
X346957Y720090D02*
Y735325D01*
X339339Y727708D01*
X349496D01*
X680971Y905252D02*
X678431Y907791D01*
X673353D01*
X670814Y905252D01*
Y895095D01*
X673353Y892556D01*
X678431D01*
X680971Y895095D01*
X686049Y905252D02*
X688588Y907791D01*
X693667D01*
X696206Y905252D01*
Y902713D01*
X693667Y900173D01*
X691127D01*
X693667D01*
X696206Y897634D01*
Y895095D01*
X693667Y892556D01*
X688588D01*
X686049Y895095D01*
X557781Y903474D02*
X555242Y906013D01*
X550163D01*
X547624Y903474D01*
Y893317D01*
X550163Y890778D01*
X555242D01*
X557781Y893317D01*
X573016Y890778D02*
X562859D01*
X573016Y900935D01*
Y903474D01*
X570477Y906013D01*
X565398D01*
X562859Y903474D01*
X518411D02*
X515872Y906013D01*
X510793D01*
X508254Y903474D01*
Y893317D01*
X510793Y890778D01*
X515872D01*
X518411Y893317D01*
X523489Y890778D02*
X528567D01*
X526028D01*
Y906013D01*
X523489Y903474D01*
X82039Y629661D02*
X76960D01*
X79500D01*
Y616965D01*
X76960Y614426D01*
X74421D01*
X71882Y616965D01*
X87117D02*
X89656Y614426D01*
X94735D01*
X97274Y616965D01*
Y627122D01*
X94735Y629661D01*
X89656D01*
X87117Y627122D01*
Y624583D01*
X89656Y622043D01*
X97274D01*
X1069136Y724290D02*
X1064057D01*
X1066597D01*
Y711594D01*
X1064057Y709055D01*
X1061518D01*
X1058979Y711594D01*
X1074214Y721751D02*
X1076753Y724290D01*
X1081832D01*
X1084371Y721751D01*
Y719212D01*
X1081832Y716673D01*
X1084371Y714133D01*
Y711594D01*
X1081832Y709055D01*
X1076753D01*
X1074214Y711594D01*
Y714133D01*
X1076753Y716673D01*
X1074214Y719212D01*
Y721751D01*
X1076753Y716673D02*
X1081832D01*
X556003Y166619D02*
X550924D01*
X553464D01*
Y153923D01*
X550924Y151384D01*
X548385D01*
X545846Y153923D01*
X561081Y166619D02*
X571238D01*
Y164080D01*
X561081Y153923D01*
Y151384D01*
X82039Y829559D02*
X76960D01*
X79500D01*
Y816863D01*
X76960Y814324D01*
X74421D01*
X71882Y816863D01*
X97274Y829559D02*
X92195Y827020D01*
X87117Y821942D01*
Y816863D01*
X89656Y814324D01*
X94735D01*
X97274Y816863D01*
Y819402D01*
X94735Y821942D01*
X87117D01*
X639061Y1153663D02*
X633982D01*
X636521D01*
Y1140967D01*
X633982Y1138428D01*
X631443D01*
X628904Y1140967D01*
X654296Y1153663D02*
X644139D01*
Y1146046D01*
X649217Y1148585D01*
X651757D01*
X654296Y1146046D01*
Y1140967D01*
X651757Y1138428D01*
X646678D01*
X644139Y1140967D01*
X219961Y162302D02*
X217421Y164841D01*
X212343D01*
X209804Y162302D01*
Y159763D01*
X212343Y157224D01*
X217421D01*
X219961Y154684D01*
Y152145D01*
X217421Y149606D01*
X212343D01*
X209804Y152145D01*
X225039Y149606D02*
X230117D01*
X227578D01*
Y164841D01*
X225039Y162302D01*
X515037Y710358D02*
Y695123D01*
X522654D01*
X525194Y697662D01*
Y700201D01*
X522654Y702740D01*
X515037D01*
X522654D01*
X525194Y705280D01*
Y707819D01*
X522654Y710358D01*
X515037D01*
X530272Y695123D02*
X535350D01*
X532811D01*
Y710358D01*
X530272Y707819D01*
D14*
X358090Y80061D02*
Y132639D01*
X492710D01*
Y80061D02*
Y132639D01*
X358090Y80061D02*
X492710D01*
X883490Y938430D02*
Y966370D01*
X1043510D01*
Y938430D02*
Y966370D01*
X883490Y786030D02*
Y813970D01*
X1043510Y786030D02*
Y813970D01*
X883490Y786030D02*
X1043510D01*
X753912Y1073330D02*
X968288D01*
Y1126670D01*
X753912Y1073330D02*
Y1126670D01*
D15*
X441000Y139000D02*
Y158000D01*
X449800Y139100D02*
X442802D01*
Y142599D01*
X443969Y143765D01*
X446301D01*
X447467Y142599D01*
Y139100D01*
Y141433D02*
X449800Y143765D01*
X443969Y150763D02*
X442802Y149597D01*
Y147264D01*
X443969Y146098D01*
X445135D01*
X446301Y147264D01*
Y149597D01*
X447467Y150763D01*
X448634D01*
X449800Y149597D01*
Y147264D01*
X448634Y146098D01*
X442802Y153096D02*
Y157761D01*
Y155428D01*
X449800D01*
X437100Y139100D02*
X430102D01*
X437100Y143765D01*
X430102D01*
X431269Y150763D02*
X430102Y149597D01*
Y147264D01*
X431269Y146098D01*
X435934D01*
X437100Y147264D01*
Y149597D01*
X435934Y150763D01*
X418568Y143765D02*
X417402Y142599D01*
Y140266D01*
X418568Y139100D01*
X419735D01*
X420901Y140266D01*
Y142599D01*
X422067Y143765D01*
X423234D01*
X424400Y142599D01*
Y140266D01*
X423234Y139100D01*
X417402Y146098D02*
X424400D01*
X422067Y148430D01*
X424400Y150763D01*
X417402D01*
Y156594D02*
Y154262D01*
X418568Y153096D01*
X423234D01*
X424400Y154262D01*
Y156594D01*
X423234Y157761D01*
X418568D01*
X417402Y156594D01*
X405868Y143765D02*
X404702Y142599D01*
Y140266D01*
X405868Y139100D01*
X410534D01*
X411700Y140266D01*
Y142599D01*
X410534Y143765D01*
X404702Y146098D02*
X411700D01*
Y150763D01*
X404702Y153096D02*
X411700D01*
X409367D01*
X404702Y157761D01*
X408201Y154262D01*
X411700Y157761D01*
X393168Y143765D02*
X392002Y142599D01*
Y140266D01*
X393168Y139100D01*
X394335D01*
X395501Y140266D01*
Y142599D01*
X396667Y143765D01*
X397834D01*
X399000Y142599D01*
Y140266D01*
X397834Y139100D01*
X392002Y146098D02*
X399000D01*
X396667Y148430D01*
X399000Y150763D01*
X392002D01*
Y153096D02*
Y155428D01*
Y154262D01*
X399000D01*
Y153096D01*
Y155428D01*
X392002Y162426D02*
Y160093D01*
X393168Y158927D01*
X397834D01*
X399000Y160093D01*
Y162426D01*
X397834Y163592D01*
X393168D01*
X392002Y162426D01*
X443969Y52607D02*
X442802Y51440D01*
Y49108D01*
X443969Y47942D01*
X448634D01*
X449800Y49108D01*
Y51440D01*
X448634Y52607D01*
X446301D01*
Y50274D01*
X449800Y54939D02*
X442802D01*
X449800Y59605D01*
X442802D01*
Y61937D02*
X449800D01*
Y65436D01*
X448634Y66602D01*
X443969D01*
X442802Y65436D01*
Y61937D01*
Y73600D02*
X449800D01*
Y70101D01*
X448634Y68935D01*
X446301D01*
X445135Y70101D01*
Y73600D01*
X430102Y54939D02*
X437100D01*
X434767D01*
X430102Y59605D01*
X433601Y56106D01*
X437100Y59605D01*
X430102Y66602D02*
Y61937D01*
X437100D01*
Y66602D01*
X433601Y61937D02*
Y64270D01*
X430102Y68935D02*
X431269D01*
X433601Y71267D01*
X431269Y73600D01*
X430102D01*
X433601Y71267D02*
X437100D01*
X418568Y59605D02*
X417402Y58438D01*
Y56106D01*
X418568Y54939D01*
X423234D01*
X424400Y56106D01*
Y58438D01*
X423234Y59605D01*
X420901D01*
Y57272D01*
X424400Y61937D02*
X417402D01*
X424400Y66602D01*
X417402D01*
Y68935D02*
X424400D01*
Y72434D01*
X423234Y73600D01*
X418568D01*
X417402Y72434D01*
Y68935D01*
X405868Y59605D02*
X404702Y58438D01*
Y56106D01*
X405868Y54939D01*
X410534D01*
X411700Y56106D01*
Y58438D01*
X410534Y59605D01*
X408201D01*
Y57272D01*
X411700Y61937D02*
X404702D01*
X411700Y66602D01*
X404702D01*
Y68935D02*
X411700D01*
Y72434D01*
X410534Y73600D01*
X405868D01*
X404702Y72434D01*
Y68935D01*
X392002Y50274D02*
X396667D01*
X399000Y52607D01*
X396667Y54939D01*
X392002D01*
X394335Y57272D02*
X399000D01*
X396667D01*
X395501Y58438D01*
X394335Y59605D01*
Y60771D01*
X399000Y67769D02*
Y65436D01*
X397834Y64270D01*
X395501D01*
X394335Y65436D01*
Y67769D01*
X395501Y68935D01*
X396667D01*
Y64270D01*
X399000Y72434D02*
X393168D01*
X395501D01*
Y71267D01*
Y73600D01*
Y72434D01*
X393168D01*
X392002Y73600D01*
X1017669Y916003D02*
X1016003Y914337D01*
Y911005D01*
X1017669Y909339D01*
X1024334D01*
X1026000Y911005D01*
Y914337D01*
X1024334Y916003D01*
X1017669Y926000D02*
X1016003Y924334D01*
Y921002D01*
X1017669Y919335D01*
X1019335D01*
X1021002Y921002D01*
Y924334D01*
X1022668Y926000D01*
X1024334D01*
X1026000Y924334D01*
Y921002D01*
X1024334Y919335D01*
X990603Y912671D02*
X1000600D01*
Y917669D01*
X998934Y919335D01*
X992269D01*
X990603Y917669D01*
Y912671D01*
Y922668D02*
Y926000D01*
Y924334D01*
X1000600D01*
Y922668D01*
Y926000D01*
X975200Y899342D02*
X965203D01*
Y904340D01*
X966869Y906006D01*
X970202D01*
X971868Y904340D01*
Y899342D01*
Y902674D02*
X975200Y906006D01*
X966869Y916003D02*
X965203Y914337D01*
Y911005D01*
X966869Y909339D01*
X968536D01*
X970202Y911005D01*
Y914337D01*
X971868Y916003D01*
X973534D01*
X975200Y914337D01*
Y911005D01*
X973534Y909339D01*
X965203Y919335D02*
Y926000D01*
Y922668D01*
X975200D01*
X949800Y912671D02*
X939803D01*
Y917669D01*
X941469Y919335D01*
X944802D01*
X946468Y917669D01*
Y912671D01*
X949800Y922668D02*
Y926000D01*
Y924334D01*
X939803D01*
X941469Y922668D01*
X924400Y909339D02*
X914403D01*
Y914337D01*
X916069Y916003D01*
X919402D01*
X921068Y914337D01*
Y909339D01*
X916069Y919335D02*
X914403Y921002D01*
Y924334D01*
X916069Y926000D01*
X922734D01*
X924400Y924334D01*
Y921002D01*
X922734Y919335D01*
X916069D01*
X889003Y909339D02*
X899000D01*
Y914337D01*
X897334Y916003D01*
X895668D01*
X894002Y914337D01*
Y909339D01*
Y914337D01*
X892336Y916003D01*
X890669D01*
X889003Y914337D01*
Y909339D01*
Y919335D02*
Y926000D01*
Y922668D01*
X899000D01*
X1016003Y826400D02*
Y829732D01*
Y828066D01*
X1026000D01*
Y826400D01*
Y829732D01*
Y834731D02*
X1016003D01*
X1026000Y841395D01*
X1016003D01*
Y844727D02*
Y851392D01*
Y848060D01*
X1026000D01*
X992269Y833064D02*
X990603Y831398D01*
Y828066D01*
X992269Y826400D01*
X993935D01*
X995602Y828066D01*
Y831398D01*
X997268Y833064D01*
X998934D01*
X1000600Y831398D01*
Y828066D01*
X998934Y826400D01*
X990603Y836397D02*
X1000600D01*
Y841395D01*
X998934Y843061D01*
X992269D01*
X990603Y841395D01*
Y836397D01*
X1000600Y846394D02*
X993935D01*
X990603Y849726D01*
X993935Y853058D01*
X1000600D01*
X995602D01*
Y846394D01*
X966869Y833064D02*
X965203Y831398D01*
Y828066D01*
X966869Y826400D01*
X968536D01*
X970202Y828066D01*
Y831398D01*
X971868Y833064D01*
X973534D01*
X975200Y831398D01*
Y828066D01*
X973534Y826400D01*
X966869Y843061D02*
X965203Y841395D01*
Y838063D01*
X966869Y836397D01*
X973534D01*
X975200Y838063D01*
Y841395D01*
X973534Y843061D01*
X965203Y846394D02*
X975200D01*
Y853058D01*
X941469Y833064D02*
X939803Y831398D01*
Y828066D01*
X941469Y826400D01*
X948134D01*
X949800Y828066D01*
Y831398D01*
X948134Y833064D01*
X944802D01*
Y829732D01*
X949800Y836397D02*
X939803D01*
X949800Y843061D01*
X939803D01*
Y846394D02*
X949800D01*
Y851392D01*
X948134Y853058D01*
X941469D01*
X939803Y851392D01*
Y846394D01*
X916069Y826400D02*
X914403Y828066D01*
Y831398D01*
X916069Y833064D01*
X917736D01*
X919402Y831398D01*
Y829732D01*
Y831398D01*
X921068Y833064D01*
X922734D01*
X924400Y831398D01*
Y828066D01*
X922734Y826400D01*
X914403Y836397D02*
X921068D01*
X924400Y839729D01*
X921068Y843061D01*
X914403D01*
X924400Y848060D02*
Y851392D01*
X922734Y853058D01*
X919402D01*
X917736Y851392D01*
Y848060D01*
X919402Y846394D01*
X922734D01*
X924400Y848060D01*
X889003Y826400D02*
X895668D01*
X899000Y829732D01*
X895668Y833064D01*
X889003D01*
Y836397D02*
Y839729D01*
Y838063D01*
X899000D01*
Y836397D01*
Y839729D01*
Y844727D02*
X889003D01*
X899000Y851392D01*
X889003D01*
X481038Y845965D02*
Y838967D01*
Y842466D01*
X485703D01*
Y845965D01*
Y838967D01*
X491535D02*
X489202D01*
X488036Y840134D01*
Y842466D01*
X489202Y843633D01*
X491535D01*
X492701Y842466D01*
Y841300D01*
X488036D01*
X496200Y843633D02*
X498533D01*
X499699Y842466D01*
Y838967D01*
X496200D01*
X495034Y840134D01*
X496200Y841300D01*
X499699D01*
X506697Y845965D02*
Y838967D01*
X503198D01*
X502032Y840134D01*
Y842466D01*
X503198Y843633D01*
X506697D01*
X512528Y838967D02*
X510196D01*
X509029Y840134D01*
Y842466D01*
X510196Y843633D01*
X512528D01*
X513694Y842466D01*
Y841300D01*
X509029D01*
X516027Y843633D02*
Y838967D01*
Y841300D01*
X517193Y842466D01*
X518360Y843633D01*
X519526D01*
X534688Y844799D02*
X533521Y845965D01*
X531189D01*
X530023Y844799D01*
Y840134D01*
X531189Y838967D01*
X533521D01*
X534688Y840134D01*
X540519Y838967D02*
X538186D01*
X537020Y840134D01*
Y842466D01*
X538186Y843633D01*
X540519D01*
X541685Y842466D01*
Y841300D01*
X537020D01*
X544018Y838967D02*
Y843633D01*
X547517D01*
X548683Y842466D01*
Y838967D01*
X552182Y844799D02*
Y843633D01*
X551016D01*
X553348D01*
X552182D01*
Y840134D01*
X553348Y838967D01*
X560346D02*
X558013D01*
X556847Y840134D01*
Y842466D01*
X558013Y843633D01*
X560346D01*
X561512Y842466D01*
Y841300D01*
X556847D01*
X563845Y843633D02*
Y838967D01*
Y841300D01*
X565011Y842466D01*
X566177Y843633D01*
X567344D01*
X570843Y838967D02*
X574342D01*
X575508Y840134D01*
X574342Y841300D01*
X572009D01*
X570843Y842466D01*
X572009Y843633D01*
X575508D01*
X586004Y844799D02*
Y843633D01*
X584838D01*
X587171D01*
X586004D01*
Y840134D01*
X587171Y838967D01*
X591836D02*
X594169D01*
X595335Y840134D01*
Y842466D01*
X594169Y843633D01*
X591836D01*
X590670Y842466D01*
Y840134D01*
X591836Y838967D01*
X609330Y844799D02*
X608164Y845965D01*
X605831D01*
X604665Y844799D01*
Y843633D01*
X605831Y842466D01*
X608164D01*
X609330Y841300D01*
Y840134D01*
X608164Y838967D01*
X605831D01*
X604665Y840134D01*
X616328Y836635D02*
Y843633D01*
X612829D01*
X611663Y842466D01*
Y840134D01*
X612829Y838967D01*
X616328D01*
X630324Y844799D02*
X629157Y845965D01*
X626825D01*
X625658Y844799D01*
Y840134D01*
X626825Y838967D01*
X629157D01*
X630324Y840134D01*
X636155Y838967D02*
X633823D01*
X632656Y840134D01*
Y842466D01*
X633823Y843633D01*
X636155D01*
X637321Y842466D01*
Y841300D01*
X632656D01*
X639654Y838967D02*
Y843633D01*
X643153D01*
X644319Y842466D01*
Y838967D01*
X647818Y844799D02*
Y843633D01*
X646652D01*
X648984D01*
X647818D01*
Y840134D01*
X648984Y838967D01*
X655982D02*
X653649D01*
X652483Y840134D01*
Y842466D01*
X653649Y843633D01*
X655982D01*
X657148Y842466D01*
Y841300D01*
X652483D01*
X659481Y843633D02*
Y838967D01*
Y841300D01*
X660647Y842466D01*
X661814Y843633D01*
X662980D01*
X678141Y838967D02*
X673476D01*
X678141Y843633D01*
Y844799D01*
X676975Y845965D01*
X674643D01*
X673476Y844799D01*
X680474D02*
X681640Y845965D01*
X683973D01*
X685139Y844799D01*
Y840134D01*
X683973Y838967D01*
X681640D01*
X680474Y840134D01*
Y844799D01*
X687472Y838967D02*
Y840134D01*
X688638D01*
Y838967D01*
X687472D01*
X693303Y844799D02*
X694470Y845965D01*
X696802D01*
X697969Y844799D01*
Y843633D01*
X696802Y842466D01*
X695636D01*
X696802D01*
X697969Y841300D01*
Y840134D01*
X696802Y838967D01*
X694470D01*
X693303Y840134D01*
X704966Y838967D02*
X700301D01*
X704966Y843633D01*
Y844799D01*
X703800Y845965D01*
X701467D01*
X700301Y844799D01*
X707299Y838967D02*
Y843633D01*
X708465D01*
X709631Y842466D01*
Y838967D01*
Y842466D01*
X710798Y843633D01*
X711964Y842466D01*
Y838967D01*
X714297D02*
Y843633D01*
X715463D01*
X716629Y842466D01*
Y838967D01*
Y842466D01*
X717795Y843633D01*
X718962Y842466D01*
Y838967D01*
X940669Y1120365D02*
X939003Y1118698D01*
Y1115366D01*
X940669Y1113700D01*
X947334D01*
X949000Y1115366D01*
Y1118698D01*
X947334Y1120365D01*
X944002D01*
Y1117032D01*
X949000Y1123697D02*
X939003D01*
X949000Y1130361D01*
X939003D01*
Y1133694D02*
X949000D01*
Y1138692D01*
X947334Y1140358D01*
X940669D01*
X939003Y1138692D01*
Y1133694D01*
X913603Y1113700D02*
Y1117032D01*
Y1115366D01*
X923600D01*
Y1113700D01*
Y1117032D01*
Y1122031D02*
X913603D01*
Y1127029D01*
X915269Y1128695D01*
X918602D01*
X920268Y1127029D01*
Y1122031D01*
Y1125363D02*
X923600Y1128695D01*
X921934Y1138692D02*
X915269D01*
X913603Y1137026D01*
Y1133694D01*
X915269Y1132027D01*
X921934D01*
X923600Y1133694D01*
Y1137026D01*
X920268Y1135360D02*
X923600Y1138692D01*
Y1137026D02*
X921934Y1138692D01*
X898200Y1113700D02*
X888203D01*
X891535Y1117032D01*
X888203Y1120365D01*
X898200D01*
X888203Y1123697D02*
Y1127029D01*
Y1125363D01*
X898200D01*
Y1123697D01*
Y1127029D01*
X889869Y1138692D02*
X888203Y1137026D01*
Y1133694D01*
X889869Y1132027D01*
X891535D01*
X893202Y1133694D01*
Y1137026D01*
X894868Y1138692D01*
X896534D01*
X898200Y1137026D01*
Y1133694D01*
X896534Y1132027D01*
X888203Y1147023D02*
Y1143690D01*
X889869Y1142024D01*
X896534D01*
X898200Y1143690D01*
Y1147023D01*
X896534Y1148689D01*
X889869D01*
X888203Y1147023D01*
X872800Y1113700D02*
X862803D01*
X866136Y1117032D01*
X862803Y1120364D01*
X872800D01*
X862803Y1128695D02*
Y1125363D01*
X864470Y1123697D01*
X871134D01*
X872800Y1125363D01*
Y1128695D01*
X871134Y1130361D01*
X864470D01*
X862803Y1128695D01*
X864470Y1140358D02*
X862803Y1138692D01*
Y1135360D01*
X864470Y1133693D01*
X866136D01*
X867802Y1135360D01*
Y1138692D01*
X869468Y1140358D01*
X871134D01*
X872800Y1138692D01*
Y1135360D01*
X871134Y1133693D01*
X862803Y1143690D02*
Y1147022D01*
Y1145356D01*
X872800D01*
Y1143690D01*
Y1147022D01*
X839069Y1120365D02*
X837403Y1118698D01*
Y1115366D01*
X839069Y1113700D01*
X840735D01*
X842402Y1115366D01*
Y1118698D01*
X844068Y1120365D01*
X845734D01*
X847400Y1118698D01*
Y1115366D01*
X845734Y1113700D01*
X839069Y1130361D02*
X837403Y1128695D01*
Y1125363D01*
X839069Y1123697D01*
X845734D01*
X847400Y1125363D01*
Y1128695D01*
X845734Y1130361D01*
X837403Y1133694D02*
X847400D01*
X844068D01*
X837403Y1140358D01*
X842402Y1135360D01*
X847400Y1140358D01*
X813669Y1120365D02*
X812003Y1118698D01*
Y1115366D01*
X813669Y1113700D01*
X820334D01*
X822000Y1115366D01*
Y1118698D01*
X820334Y1120365D01*
X813669Y1130361D02*
X812003Y1128695D01*
Y1125363D01*
X813669Y1123697D01*
X815335D01*
X817002Y1125363D01*
Y1128695D01*
X818668Y1130361D01*
X820334D01*
X822000Y1128695D01*
Y1125363D01*
X820334Y1123697D01*
X822000Y1133694D02*
X812003D01*
X822000Y1140358D01*
X812003D01*
X761203Y1113700D02*
X767868D01*
X771200Y1117032D01*
X767868Y1120365D01*
X761203D01*
X762869Y1130361D02*
X761203Y1128695D01*
Y1125363D01*
X762869Y1123697D01*
X769534D01*
X771200Y1125363D01*
Y1128695D01*
X769534Y1130361D01*
X762869Y1140358D02*
X761203Y1138692D01*
Y1135360D01*
X762869Y1133694D01*
X769534D01*
X771200Y1135360D01*
Y1138692D01*
X769534Y1140358D01*
X788269Y1120365D02*
X786603Y1118698D01*
Y1115366D01*
X788269Y1113700D01*
X794934D01*
X796600Y1115366D01*
Y1118698D01*
X794934Y1120365D01*
X786603Y1130361D02*
Y1123697D01*
X796600D01*
Y1130361D01*
X791602Y1123697D02*
Y1127029D01*
X634331Y1087336D02*
X635997Y1089002D01*
Y1092334D01*
X634331Y1094000D01*
X627666D01*
X626000Y1092334D01*
Y1089002D01*
X627666Y1087336D01*
X630998D01*
Y1090668D01*
X626000Y1084003D02*
X635997D01*
X626000Y1077339D01*
X635997D01*
Y1074006D02*
X626000D01*
Y1069008D01*
X627666Y1067342D01*
X634331D01*
X635997Y1069008D01*
Y1074006D01*
X585997Y1094000D02*
X576000D01*
Y1089002D01*
X577666Y1087336D01*
X584331D01*
X585997Y1089002D01*
Y1094000D01*
X576000Y1084003D02*
X582664D01*
X585997Y1080671D01*
X582664Y1077339D01*
X576000D01*
X580998D01*
Y1084003D01*
X585997Y1074006D02*
Y1067342D01*
Y1070674D01*
X576000D01*
Y1064010D02*
X582664D01*
X585997Y1060677D01*
X582664Y1057345D01*
X576000D01*
X580998D01*
Y1064010D01*
X112664Y784331D02*
X110998Y785997D01*
X107666D01*
X106000Y784331D01*
Y777666D01*
X107666Y776000D01*
X110998D01*
X112664Y777666D01*
Y780998D01*
X109332D01*
X115997Y776000D02*
Y785997D01*
X122661Y776000D01*
Y785997D01*
X125994D02*
Y776000D01*
X130992D01*
X132658Y777666D01*
Y784331D01*
X130992Y785997D01*
X125994D01*
X106000Y735997D02*
Y726000D01*
X110998D01*
X112664Y727666D01*
Y734331D01*
X110998Y735997D01*
X106000D01*
X115997Y726000D02*
Y732664D01*
X119329Y735997D01*
X122661Y732664D01*
Y726000D01*
Y730998D01*
X115997D01*
X125994Y735997D02*
X132658D01*
X129326D01*
Y726000D01*
X135990D02*
Y732664D01*
X139323Y735997D01*
X142655Y732664D01*
Y726000D01*
Y730998D01*
X135990D01*
X565669Y112664D02*
X564003Y110998D01*
Y107666D01*
X565669Y106000D01*
X572334D01*
X574000Y107666D01*
Y110998D01*
X572334Y112664D01*
X569002D01*
Y109332D01*
X574000Y115997D02*
X564003D01*
X574000Y122661D01*
X564003D01*
Y125993D02*
X574000D01*
Y130992D01*
X572334Y132658D01*
X565669D01*
X564003Y130992D01*
Y125993D01*
X614003Y106000D02*
X624000D01*
Y110998D01*
X622334Y112664D01*
X615669D01*
X614003Y110998D01*
Y106000D01*
X624000Y115997D02*
X617336D01*
X614003Y119329D01*
X617336Y122661D01*
X624000D01*
X619002D01*
Y115997D01*
X614003Y125993D02*
Y132658D01*
Y129326D01*
X624000D01*
Y135990D02*
X617336D01*
X614003Y139323D01*
X617336Y142655D01*
X624000D01*
X619002D01*
Y135990D01*
X1087336Y615669D02*
X1089002Y614003D01*
X1092334D01*
X1094000Y615669D01*
Y622334D01*
X1092334Y624000D01*
X1089002D01*
X1087336Y622334D01*
Y619002D01*
X1090668D01*
X1084003Y624000D02*
Y614003D01*
X1077339Y624000D01*
Y614003D01*
X1074006D02*
Y624000D01*
X1069008D01*
X1067342Y622334D01*
Y615669D01*
X1069008Y614003D01*
X1074006D01*
X1094000Y664003D02*
Y674000D01*
X1089002D01*
X1087336Y672334D01*
Y665669D01*
X1089002Y664003D01*
X1094000D01*
X1084003Y674000D02*
Y667335D01*
X1080671Y664003D01*
X1077339Y667335D01*
Y674000D01*
Y669002D01*
X1084003D01*
X1074006Y664003D02*
X1067342D01*
X1070674D01*
Y674000D01*
X1064010D02*
Y667335D01*
X1060677Y664003D01*
X1057345Y667335D01*
Y674000D01*
Y669002D01*
X1064010D01*
X112664Y584331D02*
X110998Y585997D01*
X107666D01*
X106000Y584331D01*
Y577666D01*
X107666Y576000D01*
X110998D01*
X112664Y577666D01*
Y580998D01*
X109332D01*
X115997Y576000D02*
Y585997D01*
X122661Y576000D01*
Y585997D01*
X125994D02*
Y576000D01*
X130992D01*
X132658Y577666D01*
Y584331D01*
X130992Y585997D01*
X125994D01*
X106000Y535997D02*
Y526000D01*
X110998D01*
X112664Y527666D01*
Y534331D01*
X110998Y535997D01*
X106000D01*
X115997Y526000D02*
Y532664D01*
X119329Y535997D01*
X122661Y532664D01*
Y526000D01*
Y530998D01*
X115997D01*
X125994Y535997D02*
X132658D01*
X129326D01*
Y526000D01*
X135990D02*
Y532664D01*
X139323Y535997D01*
X142655Y532664D01*
Y526000D01*
Y530998D01*
X135990D01*
D16*
X384400Y435550D02*
Y763925D01*
X409200Y435550D02*
Y763925D01*
X384400D02*
X409200D01*
X384400Y435550D02*
X409200D01*
X815600Y436075D02*
Y764450D01*
X790800D02*
X815600D01*
X790800Y436075D02*
X815600D01*
X790800D02*
Y764450D01*
X436075Y384400D02*
X764450D01*
Y409200D01*
X436075Y384400D02*
Y409200D01*
X764450D01*
X763925Y790800D02*
Y815600D01*
X435550Y790800D02*
X763925D01*
X435550Y815600D02*
X763925D01*
X435550Y790800D02*
Y815600D01*
X228240Y130000D02*
X271760D01*
X280000Y88240D02*
Y111760D01*
X228240Y70000D02*
X271760D01*
X220000Y88240D02*
Y111760D01*
M02*
