G04*
G04 #@! TF.GenerationSoftware,Altium Limited,Altium Designer,22.9.1 (49)*
G04*
G04 Layer_Color=16711935*
%FSLAX44Y44*%
%MOMM*%
G71*
G04*
G04 #@! TF.SameCoordinates,63DD9504-EA5A-40A3-A547-44A0B6CD77F8*
G04*
G04*
G04 #@! TF.FilePolarity,Negative*
G04*
G01*
G75*
%ADD34C,1.5748*%
%ADD35C,1.1684*%
%ADD36C,1.3208*%
%ADD37C,1.2032*%
%ADD38R,1.2032X1.2032*%
%ADD39R,1.2032X1.2032*%
%ADD40R,1.7112X1.7112*%
%ADD41C,1.7112*%
%ADD42C,1.8032*%
%ADD43R,1.8032X1.8032*%
%ADD44R,1.4000X1.4000*%
%ADD45C,1.4000*%
%ADD46C,1.1000*%
%ADD47R,1.4000X1.4000*%
%ADD48R,1.5032X1.5032*%
%ADD49C,1.5032*%
%ADD50C,1.2532*%
%ADD51R,1.2532X1.2532*%
%ADD52R,1.2532X1.2532*%
%ADD53C,1.4732*%
%ADD54C,4.6032*%
D34*
X823000Y1100000D02*
D03*
X950000D02*
D03*
X924600D02*
D03*
X899200D02*
D03*
X873800D02*
D03*
X848400D02*
D03*
X797600D02*
D03*
X772200D02*
D03*
D35*
X450800Y112700D02*
D03*
Y100000D02*
D03*
X438100Y112700D02*
D03*
Y100000D02*
D03*
X425400Y112700D02*
D03*
Y100000D02*
D03*
X412700Y112700D02*
D03*
Y100000D02*
D03*
X400000Y112700D02*
D03*
Y100000D02*
D03*
D36*
X1027000Y952400D02*
D03*
X1001600D02*
D03*
X976200D02*
D03*
X950800D02*
D03*
X925400D02*
D03*
X900000D02*
D03*
X1027000Y800000D02*
D03*
X1001600D02*
D03*
X976200D02*
D03*
X950800D02*
D03*
X925400D02*
D03*
X900000D02*
D03*
D37*
X396800Y447600D02*
D03*
Y473000D02*
D03*
Y498400D02*
D03*
Y511100D02*
D03*
Y523800D02*
D03*
Y536500D02*
D03*
Y549200D02*
D03*
Y485700D02*
D03*
Y460300D02*
D03*
Y599875D02*
D03*
Y574600D02*
D03*
Y612700D02*
D03*
Y587300D02*
D03*
Y561900D02*
D03*
Y739700D02*
D03*
Y727000D02*
D03*
Y714300D02*
D03*
Y701600D02*
D03*
Y688900D02*
D03*
Y676200D02*
D03*
Y663500D02*
D03*
Y650800D02*
D03*
Y625400D02*
D03*
Y638100D02*
D03*
X803200Y739700D02*
D03*
Y688900D02*
D03*
Y625400D02*
D03*
Y561900D02*
D03*
Y549200D02*
D03*
Y536500D02*
D03*
Y523800D02*
D03*
Y511100D02*
D03*
Y612700D02*
D03*
Y600125D02*
D03*
Y587300D02*
D03*
Y574600D02*
D03*
Y650800D02*
D03*
Y714300D02*
D03*
Y701600D02*
D03*
Y752400D02*
D03*
Y460300D02*
D03*
Y473000D02*
D03*
Y676200D02*
D03*
Y663500D02*
D03*
Y485700D02*
D03*
Y498400D02*
D03*
Y638100D02*
D03*
Y727000D02*
D03*
X612700Y396800D02*
D03*
X625400D02*
D03*
X460300D02*
D03*
X473000D02*
D03*
X485700D02*
D03*
X498400D02*
D03*
X511100D02*
D03*
X523800D02*
D03*
X536500D02*
D03*
X549200D02*
D03*
X561900D02*
D03*
X574600D02*
D03*
X752400D02*
D03*
X701600D02*
D03*
X714300D02*
D03*
X727000D02*
D03*
X739700D02*
D03*
X638100D02*
D03*
X650800D02*
D03*
X663500D02*
D03*
X676200D02*
D03*
X688900D02*
D03*
X587300D02*
D03*
X600125D02*
D03*
X638100Y803200D02*
D03*
X650800D02*
D03*
X663500D02*
D03*
X676200D02*
D03*
X688900D02*
D03*
X701600D02*
D03*
X714300D02*
D03*
X727000D02*
D03*
X739700D02*
D03*
X574600D02*
D03*
X587300D02*
D03*
X599875D02*
D03*
X612700D02*
D03*
X625400D02*
D03*
X511100D02*
D03*
X523800D02*
D03*
X536500D02*
D03*
X549200D02*
D03*
X561900D02*
D03*
X447600D02*
D03*
X460300D02*
D03*
X473000D02*
D03*
X485700D02*
D03*
X498400D02*
D03*
D38*
X396800Y752400D02*
D03*
X803200Y447600D02*
D03*
D39*
X447600Y396800D02*
D03*
X752400Y803200D02*
D03*
D40*
X217500Y122500D02*
D03*
D41*
X282500D02*
D03*
X217500Y77500D02*
D03*
X282500D02*
D03*
D42*
X1003250Y676150D02*
D03*
X933250Y737200D02*
D03*
D43*
X1003250Y650750D02*
D03*
X933250Y711800D02*
D03*
D44*
X625000Y1105250D02*
D03*
X575000Y94750D02*
D03*
D45*
X600000Y1105250D02*
D03*
X575000D02*
D03*
X94750Y750000D02*
D03*
Y725000D02*
D03*
X600000Y94750D02*
D03*
X625000D02*
D03*
X1105250Y650000D02*
D03*
Y675000D02*
D03*
X94750Y550000D02*
D03*
Y525000D02*
D03*
D46*
X559000Y1085250D02*
D03*
X114750Y709000D02*
D03*
X641000Y114750D02*
D03*
X1085250Y691000D02*
D03*
X114750Y509000D02*
D03*
D47*
X94750Y775000D02*
D03*
X1105250Y625000D02*
D03*
X94750Y575000D02*
D03*
D48*
X1159000Y471000D02*
D03*
D49*
X1109000Y458500D02*
D03*
X1159000Y446000D02*
D03*
X1109000Y433500D02*
D03*
X1159000Y421000D02*
D03*
X1109000Y408500D02*
D03*
X1159000Y396000D02*
D03*
X1109000Y383500D02*
D03*
X1159000Y371000D02*
D03*
X1109000Y358500D02*
D03*
X1159000Y346000D02*
D03*
X1109000Y333500D02*
D03*
X1159000Y321000D02*
D03*
X1109000Y308500D02*
D03*
X1159000Y296000D02*
D03*
X1109000Y283500D02*
D03*
X1159000Y271000D02*
D03*
X1109000Y258500D02*
D03*
X1159000Y246000D02*
D03*
X1109000Y233500D02*
D03*
D50*
X597300Y955000D02*
D03*
X610000D02*
D03*
X205000Y747300D02*
D03*
Y760000D02*
D03*
X612700Y210000D02*
D03*
X600000D02*
D03*
X965000Y512700D02*
D03*
Y500000D02*
D03*
X225000Y542300D02*
D03*
Y555000D02*
D03*
D51*
X622700Y955000D02*
D03*
X587300Y210000D02*
D03*
D52*
X205000Y772700D02*
D03*
X965000Y487300D02*
D03*
X225000Y567700D02*
D03*
D53*
X985000Y1072500D02*
D03*
X865000Y697500D02*
D03*
X239000Y351750D02*
D03*
X230000Y1012500D02*
D03*
X267500Y610000D02*
D03*
X215000Y1075000D02*
D03*
X527500D02*
D03*
X590000Y607500D02*
D03*
X690000Y682500D02*
D03*
X820000Y795000D02*
D03*
X690000Y335000D02*
D03*
X765000Y370000D02*
D03*
X960000Y395000D02*
D03*
X910000Y410000D02*
D03*
X905000Y480000D02*
D03*
X990000Y465000D02*
D03*
X1105000Y770000D02*
D03*
X695000Y1125000D02*
D03*
X315000Y725000D02*
D03*
X615000Y590000D02*
D03*
X520000Y510000D02*
D03*
X570000Y560000D02*
D03*
X152000Y868500D02*
D03*
X147000Y987000D02*
D03*
X730250Y1073000D02*
D03*
X893500Y370250D02*
D03*
X602250Y658000D02*
D03*
X565250Y630750D02*
D03*
X1098250Y941250D02*
D03*
X781000Y813500D02*
D03*
X318250Y660000D02*
D03*
X985000Y870500D02*
D03*
X1081750Y731250D02*
D03*
X239750Y406250D02*
D03*
X112250Y411500D02*
D03*
X571250Y234750D02*
D03*
X513000Y163500D02*
D03*
X446500Y306750D02*
D03*
X388750Y280250D02*
D03*
X672750Y304000D02*
D03*
X677750Y998250D02*
D03*
X217750Y875000D02*
D03*
X441250Y914250D02*
D03*
X638250Y929500D02*
D03*
X773500Y863500D02*
D03*
X801500Y420250D02*
D03*
X885250Y419750D02*
D03*
X1004000Y734750D02*
D03*
X641750Y135250D02*
D03*
X415500Y301000D02*
D03*
X238000Y198250D02*
D03*
X237750Y248750D02*
D03*
X31250Y199250D02*
D03*
Y250250D02*
D03*
Y300000D02*
D03*
X31500Y350500D02*
D03*
X882500Y650750D02*
D03*
X612750Y314000D02*
D03*
X478750Y307750D02*
D03*
X486500Y914250D02*
D03*
X520750Y914500D02*
D03*
X555750Y940000D02*
D03*
X589750Y914250D02*
D03*
X677500Y917000D02*
D03*
X721250Y916500D02*
D03*
X311250Y474500D02*
D03*
X300250Y525000D02*
D03*
X299500Y571250D02*
D03*
X290750Y702750D02*
D03*
X288750Y748500D02*
D03*
X291000Y795250D02*
D03*
X901500Y677250D02*
D03*
X998250Y603000D02*
D03*
X965250Y575250D02*
D03*
X908500Y612500D02*
D03*
X957000Y612000D02*
D03*
X1015000Y215000D02*
D03*
X987500D02*
D03*
X960000D02*
D03*
X930000D02*
D03*
X900000D02*
D03*
X870000D02*
D03*
X840000D02*
D03*
X810000D02*
D03*
X1000000Y300000D02*
D03*
X975000D02*
D03*
X945000D02*
D03*
X915000D02*
D03*
X885000D02*
D03*
X855000D02*
D03*
X825000D02*
D03*
X795000D02*
D03*
D54*
X1150000Y50000D02*
D03*
Y1150000D02*
D03*
X50000D02*
D03*
Y50000D02*
D03*
M02*
