G04*
G04 #@! TF.GenerationSoftware,Altium Limited,Altium Designer,22.9.1 (49)*
G04*
G04 Layer_Color=8421504*
%FSLAX44Y44*%
%MOMM*%
G71*
G04*
G04 #@! TF.SameCoordinates,63DD9504-EA5A-40A3-A547-44A0B6CD77F8*
G04*
G04*
G04 #@! TF.FilePolarity,Positive*
G04*
G01*
G75*
%ADD17R,1.4750X0.3000*%
%ADD18R,0.3000X1.4750*%
%ADD19R,10.0000X5.0000*%
%ADD20R,0.8121X0.7581*%
%ADD21R,0.7581X0.8121*%
%ADD22R,0.7000X1.3000*%
%ADD23R,1.0121X1.1581*%
%ADD24R,0.5000X0.8000*%
%ADD25R,0.9121X0.9581*%
%ADD26R,0.9581X0.9121*%
%ADD27R,1.1311X0.9121*%
%ADD28R,1.0582X1.3061*%
%ADD29R,1.7500X1.5000*%
%ADD30R,1.1300X2.4400*%
D17*
X522620Y660000D02*
D03*
Y655000D02*
D03*
Y650000D02*
D03*
Y645000D02*
D03*
Y640000D02*
D03*
Y635000D02*
D03*
Y630000D02*
D03*
Y625000D02*
D03*
Y620000D02*
D03*
Y615000D02*
D03*
Y610000D02*
D03*
Y605000D02*
D03*
Y600000D02*
D03*
Y595000D02*
D03*
Y590000D02*
D03*
Y585000D02*
D03*
Y580000D02*
D03*
Y575000D02*
D03*
Y570000D02*
D03*
Y565000D02*
D03*
Y560000D02*
D03*
Y555000D02*
D03*
Y550000D02*
D03*
Y545000D02*
D03*
Y540000D02*
D03*
X677380D02*
D03*
Y545000D02*
D03*
Y550000D02*
D03*
Y555000D02*
D03*
Y560000D02*
D03*
Y565000D02*
D03*
Y570000D02*
D03*
Y575000D02*
D03*
Y580000D02*
D03*
Y585000D02*
D03*
Y590000D02*
D03*
Y595000D02*
D03*
Y600000D02*
D03*
Y605000D02*
D03*
Y610000D02*
D03*
Y615000D02*
D03*
Y620000D02*
D03*
Y625000D02*
D03*
Y630000D02*
D03*
Y635000D02*
D03*
Y640000D02*
D03*
Y645000D02*
D03*
Y650000D02*
D03*
Y655000D02*
D03*
Y660000D02*
D03*
D18*
X540000Y522620D02*
D03*
X545000D02*
D03*
X550000D02*
D03*
X555000D02*
D03*
X560000D02*
D03*
X565000D02*
D03*
X570000D02*
D03*
X575000D02*
D03*
X580000D02*
D03*
X585000D02*
D03*
X590000D02*
D03*
X595000D02*
D03*
X600000D02*
D03*
X605000D02*
D03*
X610000D02*
D03*
X615000D02*
D03*
X620000D02*
D03*
X625000D02*
D03*
X630000D02*
D03*
X635000D02*
D03*
X640000D02*
D03*
X645000D02*
D03*
X650000D02*
D03*
X655000D02*
D03*
X660000D02*
D03*
Y677380D02*
D03*
X655000D02*
D03*
X650000D02*
D03*
X645000D02*
D03*
X640000D02*
D03*
X635000D02*
D03*
X630000D02*
D03*
X625000D02*
D03*
X620000D02*
D03*
X615000D02*
D03*
X610000D02*
D03*
X605000D02*
D03*
X600000D02*
D03*
X595000D02*
D03*
X590000D02*
D03*
X585000D02*
D03*
X580000D02*
D03*
X575000D02*
D03*
X570000D02*
D03*
X565000D02*
D03*
X560000D02*
D03*
X555000D02*
D03*
X550000D02*
D03*
X545000D02*
D03*
X540000D02*
D03*
D19*
X50000Y870000D02*
D03*
Y930000D02*
D03*
Y990000D02*
D03*
Y1050000D02*
D03*
D20*
X521500Y864730D02*
D03*
Y877270D02*
D03*
X554500Y864730D02*
D03*
Y877270D02*
D03*
X677750Y866480D02*
D03*
Y879020D02*
D03*
X478750Y348020D02*
D03*
Y335480D02*
D03*
X720750Y867230D02*
D03*
Y879770D02*
D03*
X612750Y348770D02*
D03*
Y336230D02*
D03*
X589750Y865230D02*
D03*
Y877770D02*
D03*
X485750Y863980D02*
D03*
Y876520D02*
D03*
D21*
X346270Y703000D02*
D03*
X333730D02*
D03*
X346270Y524250D02*
D03*
X333730D02*
D03*
X345270Y571000D02*
D03*
X332730D02*
D03*
X346270Y474250D02*
D03*
X333730D02*
D03*
X344020Y794750D02*
D03*
X331480D02*
D03*
D22*
X861750Y665250D02*
D03*
X842750D02*
D03*
D23*
X389500Y222770D02*
D03*
Y206230D02*
D03*
X434250Y222770D02*
D03*
Y206230D02*
D03*
X483000Y222770D02*
D03*
Y206230D02*
D03*
X1000000Y253270D02*
D03*
Y236730D02*
D03*
X975000Y253270D02*
D03*
Y236730D02*
D03*
X945000Y253270D02*
D03*
Y236730D02*
D03*
X915000Y253270D02*
D03*
Y236730D02*
D03*
X885000Y253270D02*
D03*
Y236730D02*
D03*
X855000Y253270D02*
D03*
Y236730D02*
D03*
X825000Y253270D02*
D03*
Y236730D02*
D03*
X795000Y253270D02*
D03*
Y236730D02*
D03*
X1079000Y892020D02*
D03*
Y875480D02*
D03*
X1122500Y892020D02*
D03*
Y875480D02*
D03*
D24*
X47500Y200000D02*
D03*
X62500D02*
D03*
X47500Y250000D02*
D03*
X62500D02*
D03*
X47500Y300000D02*
D03*
X62500D02*
D03*
X47500Y350000D02*
D03*
X62500D02*
D03*
D25*
X675000Y940460D02*
D03*
Y955000D02*
D03*
X160000Y732270D02*
D03*
Y717730D02*
D03*
X545000Y227270D02*
D03*
Y212730D02*
D03*
X1020000Y517730D02*
D03*
Y532270D02*
D03*
X225000Y637270D02*
D03*
Y622730D02*
D03*
X165000Y527270D02*
D03*
Y512730D02*
D03*
D26*
X577270Y1000000D02*
D03*
X562730D02*
D03*
X217270Y830000D02*
D03*
X202730D02*
D03*
X622730Y155000D02*
D03*
X637270D02*
D03*
X952730Y430000D02*
D03*
X967270D02*
D03*
D27*
X332095Y748000D02*
D03*
X344905D02*
D03*
D28*
X636000Y880011D02*
D03*
Y864489D02*
D03*
X440750Y879261D02*
D03*
Y863739D02*
D03*
D29*
X148750Y200000D02*
D03*
X111250D02*
D03*
X148750Y250000D02*
D03*
X111250D02*
D03*
X148750Y300000D02*
D03*
X111250D02*
D03*
X148750Y350000D02*
D03*
X111250D02*
D03*
D30*
X988900Y163000D02*
D03*
X963500D02*
D03*
X938100D02*
D03*
X912700D02*
D03*
X887300D02*
D03*
X861900D02*
D03*
X836500D02*
D03*
X811100D02*
D03*
Y77000D02*
D03*
X836500D02*
D03*
X861900D02*
D03*
X887300D02*
D03*
X912700D02*
D03*
X938100D02*
D03*
X963500D02*
D03*
X988900D02*
D03*
M02*
