G04*
G04 #@! TF.GenerationSoftware,Altium Limited,Altium Designer,22.9.1 (49)*
G04*
G04 Layer_Physical_Order=1*
G04 Layer_Color=255*
%FSLAX44Y44*%
%MOMM*%
G71*
G04*
G04 #@! TF.SameCoordinates,63DD9504-EA5A-40A3-A547-44A0B6CD77F8*
G04*
G04*
G04 #@! TF.FilePolarity,Positive*
G04*
G01*
G75*
%ADD11C,0.5080*%
%ADD13C,0.2540*%
%ADD17R,1.4750X0.3000*%
%ADD18R,0.3000X1.4750*%
%ADD19R,10.0000X5.0000*%
%ADD20R,0.8121X0.7581*%
%ADD21R,0.7581X0.8121*%
%ADD22R,0.7000X1.3000*%
%ADD23R,1.0121X1.1581*%
%ADD24R,0.5000X0.8000*%
%ADD25R,0.9121X0.9581*%
%ADD26R,0.9581X0.9121*%
%ADD27R,1.1311X0.9121*%
%ADD28R,1.0582X1.3061*%
%ADD29R,1.7500X1.5000*%
%ADD30R,1.1300X2.4400*%
%ADD34C,1.5748*%
%ADD35C,1.1684*%
%ADD36C,1.3208*%
%ADD44R,1.4000X1.4000*%
%ADD45C,1.4000*%
%ADD46C,1.1000*%
%ADD47R,1.4000X1.4000*%
%ADD55C,1.0000*%
%ADD56R,1.0000X1.0000*%
%ADD57R,1.0000X1.0000*%
%ADD58R,1.5080X1.5080*%
%ADD59C,1.5080*%
%ADD60C,1.6000*%
%ADD61R,1.6000X1.6000*%
%ADD62R,1.3000X1.3000*%
%ADD63C,1.3000*%
%ADD64C,1.0500*%
%ADD65R,1.0500X1.0500*%
%ADD66R,1.0500X1.0500*%
%ADD67C,1.2700*%
%ADD68C,4.4000*%
D11*
X315000Y725000D02*
X316300Y723700D01*
X334050D02*
X346270Y711480D01*
X316300Y723700D02*
X334050D01*
X346270Y703000D02*
Y711480D01*
X51500Y868500D02*
X152000D01*
X50000Y930000D02*
X171875D01*
Y930125D02*
X188500Y913500D01*
Y851000D02*
Y913500D01*
X147000Y809500D02*
X188500Y851000D01*
X96500Y809500D02*
X147000D01*
X71500Y784500D02*
X96500Y809500D01*
X71500Y701750D02*
Y784500D01*
Y701750D02*
X86250Y687000D01*
X127750D01*
X137250Y696500D01*
Y719000D01*
X150520Y732270D01*
X160000D01*
X53000Y987000D02*
X147000D01*
X50000Y1050000D02*
X146000D01*
X217750Y978250D01*
Y875000D02*
Y978250D01*
X625400Y853889D02*
X636000Y864489D01*
X625400Y829580D02*
Y853889D01*
X953750Y892000D02*
X1078980D01*
X900000Y838250D02*
X953750Y892000D01*
X900000Y800000D02*
Y838250D01*
X1079000Y892020D02*
X1122500D01*
X900000Y800000D02*
X933250Y766750D01*
Y737200D02*
Y766750D01*
X1145250Y484750D02*
X1159000Y471000D01*
X1145250Y484750D02*
Y970500D01*
X1069750Y1046000D02*
X1145250Y970500D01*
X703000Y1046000D02*
X1069750D01*
X677750Y1020750D02*
X703000Y1046000D01*
X677750Y998250D02*
Y1020750D01*
X563770Y227270D02*
X571250Y234750D01*
X545000Y227270D02*
X563770D01*
X600000Y210000D02*
Y275000D01*
X526980Y348020D02*
X600000Y275000D01*
X478750Y348020D02*
X526980D01*
X328290Y555000D02*
X346270Y537020D01*
X225000Y555000D02*
X328290D01*
X346270Y524250D02*
Y537020D01*
X200750Y555000D02*
X225000D01*
X173020Y527270D02*
X200750Y555000D01*
X165000Y527270D02*
X173020D01*
X226000Y638270D02*
Y814000D01*
X217270Y822730D02*
X226000Y814000D01*
X217270Y822730D02*
Y830000D01*
X180750Y759750D02*
X204750D01*
X160000Y739000D02*
X180750Y759750D01*
X160000Y732270D02*
Y739000D01*
X677750Y998250D02*
X687750D01*
X709000Y977000D01*
Y953500D02*
Y977000D01*
X695960Y940460D02*
X709000Y953500D01*
X675000Y940460D02*
X695960D01*
X217270Y830000D02*
Y874520D01*
X440750Y879261D02*
Y913750D01*
X636000Y880011D02*
Y927250D01*
X752400Y842400D02*
X773500Y863500D01*
X752400Y835580D02*
Y842400D01*
Y803200D02*
Y835580D01*
X610250Y944500D02*
Y954750D01*
X600500Y934750D02*
X610250Y944500D01*
X581000Y934750D02*
X600500D01*
X569250Y923000D02*
X581000Y934750D01*
X569250Y873750D02*
Y923000D01*
X560230Y864730D02*
X569250Y873750D01*
X554500Y864730D02*
X560230D01*
X622730Y143770D02*
Y155000D01*
Y143770D02*
X631250Y135250D01*
X641750D01*
X980520Y500000D02*
X998250Y517730D01*
X965000Y500000D02*
X980520D01*
X842750Y742750D02*
X900000Y800000D01*
X842750Y665250D02*
Y742750D01*
X1047500Y457750D02*
X1108250D01*
X1005750Y416000D02*
X1047500Y457750D01*
X953250Y416000D02*
X1005750D01*
X952730Y416520D02*
Y430000D01*
X1146500Y458500D02*
X1159000Y471000D01*
X1109000Y458500D02*
X1146500D01*
X992650Y73250D02*
X1085250D01*
X1177500Y165500D01*
Y438750D01*
X1170250Y446000D02*
X1177500Y438750D01*
X1159000Y446000D02*
X1170250D01*
X1146500Y433500D02*
X1159000Y446000D01*
X1109000Y433500D02*
X1146500D01*
X963500Y77000D02*
X988900D01*
X938100D02*
X963500D01*
X912700D02*
X938100D01*
X887300D02*
X912700D01*
X861900D02*
X887300D01*
X836500D02*
X861900D01*
X811100D02*
X836500D01*
X752850Y135250D02*
X811100Y77000D01*
X641750Y135250D02*
X752850D01*
X32000Y350000D02*
X47500D01*
X31250Y300000D02*
X47500D01*
X31500Y250000D02*
X47500D01*
X32000Y200000D02*
X47500D01*
X803200Y663500D02*
X841000D01*
X612750Y314000D02*
Y336230D01*
Y348770D02*
Y396750D01*
X473000Y353770D02*
Y396800D01*
Y353770D02*
X478750Y348020D01*
Y307750D02*
Y335480D01*
X720750Y879770D02*
Y916000D01*
X677750Y879020D02*
Y916750D01*
X589750Y877770D02*
Y914250D01*
X554500Y877270D02*
Y938750D01*
X521500Y877270D02*
Y913750D01*
X485750Y876520D02*
Y913500D01*
X720750Y867230D02*
X752400Y835580D01*
X677750Y866480D02*
X688900Y855330D01*
Y803200D02*
Y855330D01*
X589750Y865230D02*
X635259D01*
X625400Y803200D02*
Y829580D01*
X554500Y864730D02*
X574600Y844630D01*
Y803200D02*
Y844630D01*
X521500Y864730D02*
X536500Y849730D01*
Y803200D02*
Y849730D01*
X440750Y863739D02*
X485509D01*
X485750Y863980D02*
X498400Y851330D01*
Y803200D02*
Y851330D01*
X311500Y474250D02*
X333730D01*
X301000Y524250D02*
X333730D01*
X299750Y571000D02*
X332730D01*
X290750Y702750D02*
X333480D01*
X289250Y748000D02*
X332095D01*
X291500Y794750D02*
X331480D01*
X344020Y748885D02*
Y794750D01*
X344905Y748000D02*
X378605Y714300D01*
X396800D01*
X347670Y701600D02*
X396800D01*
X345270Y571000D02*
X379770Y536500D01*
X396800D01*
X346720Y523800D02*
X396800D01*
X346270Y474250D02*
X357720Y485700D01*
X396800D01*
X577270Y987730D02*
Y1000000D01*
Y987730D02*
X610000Y955000D01*
X998250Y517730D02*
X1020000D01*
X600000Y210000D02*
X622730Y187270D01*
Y155000D02*
Y187270D01*
D13*
X846250Y524000D02*
X872500Y497750D01*
X731500Y304000D02*
X872500Y445000D01*
Y497750D01*
X672750Y304000D02*
X731500D01*
X1008750Y768750D02*
X1103750D01*
X1105000Y770000D01*
X1001600Y775900D02*
X1008750Y768750D01*
X670000Y1150000D02*
X695000Y1125000D01*
X558000Y1150000D02*
X670000D01*
X615000Y571750D02*
Y590000D01*
X605000Y561750D02*
X615000Y571750D01*
X520000Y510000D02*
Y521375D01*
X540000Y541375D02*
Y550000D01*
X520000Y521375D02*
X540000Y541375D01*
X522620Y570000D02*
X560000D01*
X570000Y560000D01*
X522620Y555000D02*
X535000D01*
X535000Y555000D02*
X540000Y550000D01*
X535000Y555000D02*
X535000Y555000D01*
X484300Y555000D02*
X522620D01*
X396800Y599875D02*
X522495D01*
X605000Y522620D02*
Y561750D01*
X50000Y870000D02*
X51500Y868500D01*
X50000Y990000D02*
X53000Y987000D01*
X50000Y975000D02*
X51250Y973750D01*
X893500Y370250D02*
X990750D01*
X1049250Y311750D01*
Y200000D02*
Y311750D01*
Y200000D02*
X1070250Y179000D01*
X1093250D01*
X1132000Y217750D01*
Y331750D01*
X1146250Y346000D01*
X1159000D01*
X591750Y658000D02*
X602250D01*
X590000Y663750D02*
Y677380D01*
Y659750D02*
Y663750D01*
Y659750D02*
X591750Y658000D01*
X602250D02*
X625500D01*
X635000Y667500D01*
Y677380D01*
X565250Y630750D02*
X571000Y625000D01*
X677380D01*
X556000Y640000D02*
X565250Y630750D01*
X522620Y640000D02*
X556000D01*
X660000Y661500D02*
Y677380D01*
X643500Y645000D02*
X660000Y661500D01*
X522620Y645000D02*
X643500D01*
X579500Y659750D02*
X586000D01*
X590000Y663750D01*
X575000Y664250D02*
X579500Y659750D01*
X575000Y664250D02*
Y677380D01*
X522620Y575000D02*
X591750D01*
X605000Y561750D01*
X537500Y569750D02*
X550000Y557250D01*
Y522620D02*
Y557250D01*
X1079000Y922000D02*
X1098250Y941250D01*
X958750Y922000D02*
X1079000D01*
X850250Y813500D02*
X958750Y922000D01*
X781000Y813500D02*
X850250D01*
X318250Y660000D02*
X318500Y659750D01*
Y635750D02*
Y659750D01*
Y635750D02*
X379650Y574600D01*
X396800D01*
X1001600Y775900D02*
Y800000D01*
X1057500Y731250D02*
X1081750D01*
X1036000Y752750D02*
X1057500Y731250D01*
X987750Y752750D02*
X1036000D01*
X976200Y764300D02*
X987750Y752750D01*
X976200Y764300D02*
Y800000D01*
X255500Y847500D02*
X558000Y1150000D01*
X255500Y679750D02*
Y847500D01*
Y679750D02*
X386050Y549200D01*
X396800D01*
X1094770Y847750D02*
X1122500Y875480D01*
X1051250Y847750D02*
X1094770D01*
X1003500Y800000D02*
X1051250Y847750D01*
X1001600Y800000D02*
X1003500D01*
X1051680Y875480D02*
X1079000D01*
X976200Y800000D02*
X1051680Y875480D01*
X1078980Y892000D02*
X1079000Y892020D01*
X933250Y660750D02*
Y711800D01*
X847100Y574600D02*
X933250Y660750D01*
X803200Y574600D02*
X847100D01*
X512750Y163750D02*
X513000Y163500D01*
X512750Y163750D02*
Y207250D01*
X497230Y222770D02*
X512750Y207250D01*
X483000Y222770D02*
X497230D01*
X434250Y294500D02*
X446500Y306750D01*
X434250Y222770D02*
Y294500D01*
X803200Y523800D02*
X803400Y524000D01*
X846250D01*
X388750Y280250D02*
X389500Y279500D01*
Y222770D02*
Y279500D01*
X225000Y637270D02*
X226000Y638270D01*
X204750Y759750D02*
X205000Y760000D01*
X217270Y874520D02*
X217750Y875000D01*
X440750Y913750D02*
X441250Y914250D01*
X636000Y927250D02*
X638250Y929500D01*
X610000Y955000D02*
X610250Y954750D01*
X803200Y536500D02*
X853750D01*
X968000Y650750D01*
X1003250D01*
Y734000D02*
X1004000Y734750D01*
X1003250Y676150D02*
Y734000D01*
X1001450Y677950D02*
X1003250Y676150D01*
X1108250Y457750D02*
X1109000Y458500D01*
X952730Y416520D02*
X953250Y416000D01*
X988900Y77000D02*
X992650Y73250D01*
X282500Y122500D02*
X351250Y53750D01*
X493500D01*
X511250Y71500D01*
Y96000D01*
X494550Y112700D02*
X511250Y96000D01*
X450800Y112700D02*
X494550D01*
X217500Y122500D02*
X282500D01*
X414500Y300000D02*
X415500Y301000D01*
X148750Y300000D02*
X414500D01*
X1014800Y487300D02*
X1030750Y503250D01*
X965000Y487300D02*
X1014800D01*
X1030750Y503250D02*
Y621500D01*
X1084250Y675000D01*
X1105250D01*
X237250Y350000D02*
X239000Y351750D01*
X148750Y350000D02*
X237250D01*
X236500Y250000D02*
X237750Y248750D01*
X148750Y250000D02*
X236500D01*
X236250Y200000D02*
X238000Y198250D01*
X148750Y200000D02*
X236250D01*
X31500Y350500D02*
X32000Y350000D01*
X31250Y250250D02*
X31500Y250000D01*
X31250Y199250D02*
X32000Y200000D01*
X62500Y350000D02*
X111250D01*
X62500Y300000D02*
X111250D01*
X62500Y250000D02*
X111250D01*
X62500Y200000D02*
X111250D01*
X438100Y112700D02*
Y161330D01*
X483000Y206230D01*
X412700Y112700D02*
Y184680D01*
X434250Y206230D01*
X389500Y123200D02*
X400000Y112700D01*
X389500Y123200D02*
Y206230D01*
X861750Y665250D02*
X876250Y650750D01*
X882500D01*
X841000Y663500D02*
X842750Y665250D01*
X612700Y396800D02*
X612750Y396750D01*
X720750Y916000D02*
X721250Y916500D01*
X677500Y917000D02*
X677750Y916750D01*
X554500Y938750D02*
X555750Y940000D01*
X520750Y914500D02*
X521500Y913750D01*
X485750Y913500D02*
X486500Y914250D01*
X635259Y865230D02*
X636000Y864489D01*
X485509Y863739D02*
X485750Y863980D01*
X311250Y474500D02*
X311500Y474250D01*
X300250Y525000D02*
X301000Y524250D01*
X299500Y571250D02*
X299750Y571000D01*
X333480Y702750D02*
X333730Y703000D01*
X288750Y748500D02*
X289250Y748000D01*
X291000Y795250D02*
X291500Y794750D01*
X344020Y748885D02*
X344905Y748000D01*
X346270Y703000D02*
X347670Y701600D01*
X346270Y524250D02*
X346720Y523800D01*
X825000Y236730D02*
X840000Y221730D01*
Y215000D02*
Y221730D01*
X795000Y236730D02*
X810000Y221730D01*
Y215000D02*
Y221730D01*
X975000Y236730D02*
X987500Y224230D01*
Y215000D02*
Y224230D01*
X1000000Y236730D02*
X1015000Y221730D01*
Y215000D02*
Y221730D01*
X960000Y215000D02*
Y221730D01*
X945000Y236730D02*
X960000Y221730D01*
X915000Y236730D02*
X930000Y221730D01*
Y215000D02*
Y221730D01*
X855000Y236730D02*
X870000Y221730D01*
Y215000D02*
Y221730D01*
X887300Y234430D02*
X900000Y221730D01*
X885000Y236730D02*
X887300Y234430D01*
X900000Y215000D02*
Y221730D01*
X1000000Y253270D02*
Y300000D01*
X975000Y253270D02*
Y300000D01*
X945000Y253270D02*
Y300000D01*
X915000Y253270D02*
Y300000D01*
X885000Y253270D02*
Y300000D01*
X855000Y253270D02*
Y300000D01*
X825000Y253270D02*
Y300000D01*
X795000Y253270D02*
Y300000D01*
Y185000D02*
Y236730D01*
Y185000D02*
X811100Y168900D01*
Y163000D02*
Y168900D01*
X825000Y180000D02*
Y236730D01*
Y180000D02*
X836500Y168500D01*
Y163000D02*
Y168500D01*
X855000Y180000D02*
Y236730D01*
Y180000D02*
X861900Y173100D01*
Y163000D02*
Y173100D01*
X887300Y163000D02*
Y234430D01*
X912700D02*
X915000Y236730D01*
X912700Y163000D02*
Y234430D01*
X945000Y180000D02*
Y236730D01*
X938100Y173100D02*
X945000Y180000D01*
X938100Y163000D02*
Y173100D01*
X975000Y180000D02*
Y236730D01*
X963500Y168500D02*
X975000Y180000D01*
X963500Y163000D02*
Y168500D01*
X1000000Y180000D02*
Y236730D01*
X988900Y168900D02*
X1000000Y180000D01*
X988900Y163000D02*
Y168900D01*
X625000Y957300D02*
Y1030000D01*
X622700Y955000D02*
X625000Y957300D01*
X622700Y955000D02*
X675000D01*
X575000Y1080000D02*
X625000Y1030000D01*
X575000Y1080000D02*
Y1105250D01*
X562730Y989570D02*
Y1000000D01*
Y989570D02*
X597300Y955000D01*
X172700Y772700D02*
X205000D01*
X125000Y725000D02*
X172700Y772700D01*
X94750Y725000D02*
X125000D01*
X202730Y830000D02*
X205000Y827730D01*
Y772700D02*
Y827730D01*
X160000Y717730D02*
X175430D01*
X205000Y747300D01*
X225000Y567700D02*
Y622730D01*
X94750Y525000D02*
X125000D01*
X167700Y567700D01*
X225000D01*
X165000Y512730D02*
X195430D01*
X225000Y542300D01*
X965000Y432270D02*
X967270Y430000D01*
X965000Y432270D02*
Y487300D01*
X984570Y532270D02*
X1020000D01*
X965000Y512700D02*
X984570Y532270D01*
X625000Y94750D02*
Y125000D01*
X587300Y162700D02*
X625000Y125000D01*
X587300Y162700D02*
Y210000D01*
X612700D02*
X637270Y185430D01*
Y155000D02*
Y185430D01*
X584570Y212730D02*
X587300Y210000D01*
X545000Y212730D02*
X584570D01*
X660000Y677380D02*
Y692600D01*
X752400Y785000D01*
X655000Y677380D02*
Y700300D01*
X739700Y785000D01*
X650000Y677380D02*
Y708000D01*
X727000Y785000D01*
X645000Y677380D02*
Y715700D01*
X714300Y785000D01*
X640000Y677380D02*
Y723400D01*
X701600Y785000D01*
X635000Y677380D02*
Y731100D01*
X688900Y785000D01*
X630000Y677380D02*
Y738800D01*
X676200Y785000D01*
X625000Y677380D02*
Y746500D01*
X663500Y785000D01*
X620000Y677380D02*
Y754200D01*
X650800Y785000D01*
X615000Y677380D02*
Y761900D01*
X638100Y785000D01*
X610000Y677380D02*
Y769600D01*
X625400Y785000D01*
X605000Y677380D02*
Y777300D01*
X612700Y785000D01*
X599875Y677505D02*
X600000Y677380D01*
X595000D02*
Y777300D01*
X587300Y785000D02*
X595000Y777300D01*
X590000Y677380D02*
Y769600D01*
X574600Y785000D02*
X590000Y769600D01*
X585000Y677380D02*
Y761900D01*
X561900Y785000D02*
X585000Y761900D01*
X580000Y677380D02*
Y754200D01*
X549200Y785000D02*
X580000Y754200D01*
X575000Y677380D02*
Y746500D01*
X536500Y785000D02*
X575000Y746500D01*
X570000Y677380D02*
Y738800D01*
X523800Y785000D02*
X570000Y738800D01*
X565000Y677380D02*
Y731100D01*
X511100Y785000D02*
X565000Y731100D01*
X560000Y677380D02*
Y723400D01*
X498400Y785000D02*
X560000Y723400D01*
X555000Y677380D02*
Y715700D01*
X485700Y785000D02*
X555000Y715700D01*
X550000Y677380D02*
Y708000D01*
X473000Y785000D02*
X550000Y708000D01*
X545000Y677380D02*
Y700300D01*
X460300Y785000D02*
X545000Y700300D01*
X540000Y677380D02*
Y692600D01*
X447600Y785000D02*
X540000Y692600D01*
X752400Y785000D02*
Y803200D01*
X739700Y785000D02*
Y803200D01*
X727000Y785000D02*
Y803200D01*
X714300Y785000D02*
Y803200D01*
X701600Y785000D02*
Y803200D01*
X688900Y785000D02*
Y803200D01*
X676200Y785000D02*
Y803200D01*
X663500Y785000D02*
Y803200D01*
X650800Y785000D02*
Y803200D01*
X638100Y785000D02*
Y803200D01*
X625400Y785000D02*
Y803200D01*
X612700Y785000D02*
Y803200D01*
X599875Y677505D02*
Y803200D01*
X587300Y785000D02*
Y803200D01*
X574600Y785000D02*
Y803200D01*
X561900Y785000D02*
Y803200D01*
X549200Y785000D02*
Y803200D01*
X536500Y785000D02*
Y803200D01*
X523800Y785000D02*
Y803200D01*
X511100Y785000D02*
Y803200D01*
X460300Y785000D02*
Y803200D01*
X498400Y785000D02*
Y803200D01*
X485700Y785000D02*
Y803200D01*
X473000Y785000D02*
Y803200D01*
X447600Y785000D02*
Y803200D01*
X660000Y507400D02*
Y522620D01*
Y507400D02*
X752400Y415000D01*
X655000Y499700D02*
Y522620D01*
Y499700D02*
X739700Y415000D01*
X650000Y492000D02*
Y522620D01*
Y492000D02*
X727000Y415000D01*
X645000Y484300D02*
Y522620D01*
Y484300D02*
X714300Y415000D01*
X640000Y476600D02*
Y522620D01*
Y476600D02*
X701600Y415000D01*
X635000Y468800D02*
Y522620D01*
Y468800D02*
X688900Y414900D01*
X630000Y461200D02*
Y522620D01*
Y461200D02*
X676200Y415000D01*
X625000Y453500D02*
Y522620D01*
Y453500D02*
X663500Y415000D01*
X620000Y445800D02*
Y522620D01*
Y445800D02*
X650800Y415000D01*
X615000Y438100D02*
Y522620D01*
Y438100D02*
X638100Y415000D01*
X610000Y430400D02*
Y522620D01*
Y430400D02*
X625400Y415000D01*
X605000Y422700D02*
Y522620D01*
Y422700D02*
X612700Y415000D01*
X600000Y522620D02*
X600125Y522495D01*
X595000Y422700D02*
Y522620D01*
X587300Y415000D02*
X595000Y422700D01*
X590000Y430400D02*
Y522620D01*
X574600Y415000D02*
X590000Y430400D01*
X585000Y438100D02*
Y522620D01*
X561900Y415000D02*
X585000Y438100D01*
X580000Y445800D02*
Y522620D01*
X549200Y415000D02*
X580000Y445800D01*
X575000Y453500D02*
Y522620D01*
X536500Y415000D02*
X575000Y453500D01*
X570000Y461200D02*
Y522620D01*
X523800Y415000D02*
X570000Y461200D01*
X565000Y468900D02*
Y522620D01*
X511100Y415000D02*
X565000Y468900D01*
X560000Y476600D02*
Y522620D01*
X498400Y415000D02*
X560000Y476600D01*
X555000Y484300D02*
Y522620D01*
X485700Y415000D02*
X555000Y484300D01*
X550000Y492000D02*
Y522620D01*
X473000Y415000D02*
X550000Y492000D01*
X545000Y499700D02*
Y522620D01*
X460300Y415000D02*
X545000Y499700D01*
X540000Y507400D02*
Y522620D01*
X447600Y415000D02*
X540000Y507400D01*
X752400Y396800D02*
Y415000D01*
X739700Y396800D02*
Y415000D01*
X727000Y396800D02*
Y415000D01*
X714300Y396800D02*
Y415000D01*
X701600Y396800D02*
Y415000D01*
X688900Y396800D02*
Y414900D01*
X676200Y396800D02*
Y415000D01*
X663500Y396800D02*
Y415000D01*
X650800Y396800D02*
Y415000D01*
X638100Y396800D02*
Y415000D01*
X625400Y396800D02*
Y415000D01*
X612700Y396800D02*
Y415000D01*
X600125Y396800D02*
Y522495D01*
X587300Y396800D02*
Y415000D01*
X574600Y396800D02*
Y415000D01*
X561900Y396800D02*
Y415000D01*
X549200Y396800D02*
Y415000D01*
X536500Y396800D02*
Y415000D01*
X523800Y396800D02*
Y415000D01*
X511100Y396800D02*
Y415000D01*
X498400Y396800D02*
Y415000D01*
X485700Y396800D02*
Y415000D01*
X473000Y396800D02*
Y415000D01*
X460300Y396800D02*
Y415000D01*
X447600Y396800D02*
Y415000D01*
X677380Y660000D02*
X692600D01*
X785000Y752400D01*
X677380Y655000D02*
X700300D01*
X785000Y739700D01*
X677380Y650000D02*
X708000D01*
X785000Y727000D01*
X677380Y645000D02*
X715700D01*
X785000Y714300D01*
X677380Y640000D02*
X723500D01*
X785100Y701600D01*
X677380Y635000D02*
X731100D01*
X785000Y688900D01*
X677380Y630000D02*
X738800D01*
X785000Y676200D01*
X677380Y625000D02*
X746500D01*
X785000Y663500D01*
X677380Y620000D02*
X754200D01*
X785000Y650800D01*
X677380Y615000D02*
X761900D01*
X785000Y638100D01*
X677380Y610000D02*
X769600D01*
X785000Y625400D01*
X677380Y605000D02*
X777300D01*
X785000Y612700D01*
X677380Y600000D02*
X677505Y600125D01*
X677380Y595000D02*
X777300D01*
X785000Y587300D01*
X677380Y590000D02*
X769600D01*
X785000Y574600D01*
X677380Y585000D02*
X761900D01*
X785000Y561900D01*
X677380Y580000D02*
X754200D01*
X785000Y549200D01*
X677380Y575000D02*
X746500D01*
X785000Y536500D01*
X677380Y570000D02*
X738800D01*
X785000Y523800D01*
X677380Y565000D02*
X731100D01*
X785000Y511100D01*
X677380Y560000D02*
X723400D01*
X785000Y498400D01*
X677380Y555000D02*
X715700D01*
X785000Y485700D01*
X677380Y550000D02*
X708000D01*
X785000Y473000D01*
X677380Y545000D02*
X700300D01*
X785000Y460300D01*
X677380Y540000D02*
X692600D01*
X785000Y447600D01*
Y752400D02*
X803200D01*
X785000Y739700D02*
X803200D01*
X785000Y727000D02*
X803200D01*
X785000Y714300D02*
X803200D01*
X785100Y701600D02*
X803200D01*
X785000Y688900D02*
X803200D01*
X785000Y676200D02*
X803200D01*
X785000Y663500D02*
X803200D01*
X785000Y650800D02*
X803200D01*
X785000Y638100D02*
X803200D01*
X785000Y625400D02*
X803200D01*
X785000Y612700D02*
X803200D01*
X677505Y600125D02*
X803200D01*
X785000Y587300D02*
X803200D01*
X785000Y574600D02*
X803200D01*
X785000Y561900D02*
X803200D01*
X785000Y549200D02*
X803200D01*
X785000Y536500D02*
X803200D01*
X785000Y523800D02*
X803200D01*
X785000Y511100D02*
X803200D01*
X785000Y498400D02*
X803200D01*
X785000Y485700D02*
X803200D01*
X785000Y473000D02*
X803200D01*
X785000Y460300D02*
X803200D01*
X785000Y447600D02*
X803200D01*
X507400Y660000D02*
X522620D01*
X415000Y752400D02*
X507400Y660000D01*
X499700Y655000D02*
X522620D01*
X415000Y739700D02*
X499700Y655000D01*
X492000Y650000D02*
X522620D01*
X415000Y727000D02*
X492000Y650000D01*
X484100Y645000D02*
X522620D01*
X414800Y714300D02*
X484100Y645000D01*
X476600Y640000D02*
X522620D01*
X415000Y701600D02*
X476600Y640000D01*
X468900Y635000D02*
X522620D01*
X415000Y688900D02*
X468900Y635000D01*
X461200Y630000D02*
X522620D01*
X415000Y676200D02*
X461200Y630000D01*
X453500Y625000D02*
X522620D01*
X415000Y663500D02*
X453500Y625000D01*
X445800Y620000D02*
X522620D01*
X415000Y650800D02*
X445800Y620000D01*
X438100Y615000D02*
X522620D01*
X415000Y638100D02*
X438100Y615000D01*
X430400Y610000D02*
X522620D01*
X415000Y625400D02*
X430400Y610000D01*
X422700Y605000D02*
X522620D01*
X415000Y612700D02*
X422700Y605000D01*
X522495Y599875D02*
X522620Y600000D01*
X422700Y595000D02*
X522620D01*
X415000Y587300D02*
X422700Y595000D01*
X430400Y590000D02*
X522620D01*
X415000Y574600D02*
X430400Y590000D01*
X438100Y585000D02*
X522620D01*
X415000Y561900D02*
X438100Y585000D01*
X445800Y580000D02*
X522620D01*
X415000Y549200D02*
X445800Y580000D01*
X453500Y575000D02*
X522620D01*
X415000Y536500D02*
X453500Y575000D01*
X461200Y570000D02*
X522620D01*
X415000Y523800D02*
X461200Y570000D01*
X468900Y565000D02*
X522620D01*
X415000Y511100D02*
X468900Y565000D01*
X476450Y560000D02*
X522620D01*
X414850Y498400D02*
X476450Y560000D01*
X415000Y485700D02*
X484300Y555000D01*
X492000Y550000D02*
X522620D01*
X415000Y473000D02*
X492000Y550000D01*
X499700Y545000D02*
X522620D01*
X415000Y460300D02*
X499700Y545000D01*
X507400Y540000D02*
X522620D01*
X415000Y447600D02*
X507400Y540000D01*
X396800Y752400D02*
X415000D01*
X396800Y739700D02*
X415000D01*
X396800Y727000D02*
X415000D01*
X396800Y714300D02*
X414800D01*
X396800Y701600D02*
X415000D01*
X396800Y688900D02*
X415000D01*
X396800Y676200D02*
X415000D01*
X396800Y663500D02*
X415000D01*
X396800Y650800D02*
X415000D01*
X396800Y638100D02*
X415000D01*
X396800Y625400D02*
X415000D01*
X396800Y612700D02*
X415000D01*
X396800Y587300D02*
X415000D01*
X396800Y574600D02*
X415000D01*
X396800Y561900D02*
X415000D01*
X396800Y549200D02*
X415000D01*
X396800Y536500D02*
X415000D01*
X396800Y523800D02*
X415000D01*
X396800Y511100D02*
X415000D01*
X396800Y498400D02*
X414850D01*
X396800Y485700D02*
X415000D01*
X396800Y473000D02*
X415000D01*
X396800Y460300D02*
X415000D01*
X396800Y447600D02*
X415000D01*
D17*
X522620Y660000D02*
D03*
Y655000D02*
D03*
Y650000D02*
D03*
Y645000D02*
D03*
Y640000D02*
D03*
Y635000D02*
D03*
Y630000D02*
D03*
Y625000D02*
D03*
Y620000D02*
D03*
Y615000D02*
D03*
Y610000D02*
D03*
Y605000D02*
D03*
Y600000D02*
D03*
Y595000D02*
D03*
Y590000D02*
D03*
Y585000D02*
D03*
Y580000D02*
D03*
Y575000D02*
D03*
Y570000D02*
D03*
Y565000D02*
D03*
Y560000D02*
D03*
Y555000D02*
D03*
Y550000D02*
D03*
Y545000D02*
D03*
Y540000D02*
D03*
X677380D02*
D03*
Y545000D02*
D03*
Y550000D02*
D03*
Y555000D02*
D03*
Y560000D02*
D03*
Y565000D02*
D03*
Y570000D02*
D03*
Y575000D02*
D03*
Y580000D02*
D03*
Y585000D02*
D03*
Y590000D02*
D03*
Y595000D02*
D03*
Y600000D02*
D03*
Y605000D02*
D03*
Y610000D02*
D03*
Y615000D02*
D03*
Y620000D02*
D03*
Y625000D02*
D03*
Y630000D02*
D03*
Y635000D02*
D03*
Y640000D02*
D03*
Y645000D02*
D03*
Y650000D02*
D03*
Y655000D02*
D03*
Y660000D02*
D03*
D18*
X540000Y522620D02*
D03*
X545000D02*
D03*
X550000D02*
D03*
X555000D02*
D03*
X560000D02*
D03*
X565000D02*
D03*
X570000D02*
D03*
X575000D02*
D03*
X580000D02*
D03*
X585000D02*
D03*
X590000D02*
D03*
X595000D02*
D03*
X600000D02*
D03*
X605000D02*
D03*
X610000D02*
D03*
X615000D02*
D03*
X620000D02*
D03*
X625000D02*
D03*
X630000D02*
D03*
X635000D02*
D03*
X640000D02*
D03*
X645000D02*
D03*
X650000D02*
D03*
X655000D02*
D03*
X660000D02*
D03*
Y677380D02*
D03*
X655000D02*
D03*
X650000D02*
D03*
X645000D02*
D03*
X640000D02*
D03*
X635000D02*
D03*
X630000D02*
D03*
X625000D02*
D03*
X620000D02*
D03*
X615000D02*
D03*
X610000D02*
D03*
X605000D02*
D03*
X600000D02*
D03*
X595000D02*
D03*
X590000D02*
D03*
X585000D02*
D03*
X580000D02*
D03*
X575000D02*
D03*
X570000D02*
D03*
X565000D02*
D03*
X560000D02*
D03*
X555000D02*
D03*
X550000D02*
D03*
X545000D02*
D03*
X540000D02*
D03*
D19*
X50000Y870000D02*
D03*
Y930000D02*
D03*
Y990000D02*
D03*
Y1050000D02*
D03*
D20*
X521500Y864730D02*
D03*
Y877270D02*
D03*
X554500Y864730D02*
D03*
Y877270D02*
D03*
X677750Y866480D02*
D03*
Y879020D02*
D03*
X478750Y348020D02*
D03*
Y335480D02*
D03*
X720750Y867230D02*
D03*
Y879770D02*
D03*
X612750Y348770D02*
D03*
Y336230D02*
D03*
X589750Y865230D02*
D03*
Y877770D02*
D03*
X485750Y863980D02*
D03*
Y876520D02*
D03*
D21*
X346270Y703000D02*
D03*
X333730D02*
D03*
X346270Y524250D02*
D03*
X333730D02*
D03*
X345270Y571000D02*
D03*
X332730D02*
D03*
X346270Y474250D02*
D03*
X333730D02*
D03*
X344020Y794750D02*
D03*
X331480D02*
D03*
D22*
X861750Y665250D02*
D03*
X842750D02*
D03*
D23*
X389500Y222770D02*
D03*
Y206230D02*
D03*
X434250Y222770D02*
D03*
Y206230D02*
D03*
X483000Y222770D02*
D03*
Y206230D02*
D03*
X1000000Y253270D02*
D03*
Y236730D02*
D03*
X975000Y253270D02*
D03*
Y236730D02*
D03*
X945000Y253270D02*
D03*
Y236730D02*
D03*
X915000Y253270D02*
D03*
Y236730D02*
D03*
X885000Y253270D02*
D03*
Y236730D02*
D03*
X855000Y253270D02*
D03*
Y236730D02*
D03*
X825000Y253270D02*
D03*
Y236730D02*
D03*
X795000Y253270D02*
D03*
Y236730D02*
D03*
X1079000Y892020D02*
D03*
Y875480D02*
D03*
X1122500Y892020D02*
D03*
Y875480D02*
D03*
D24*
X47500Y200000D02*
D03*
X62500D02*
D03*
X47500Y250000D02*
D03*
X62500D02*
D03*
X47500Y300000D02*
D03*
X62500D02*
D03*
X47500Y350000D02*
D03*
X62500D02*
D03*
D25*
X675000Y940460D02*
D03*
Y955000D02*
D03*
X160000Y732270D02*
D03*
Y717730D02*
D03*
X545000Y227270D02*
D03*
Y212730D02*
D03*
X1020000Y517730D02*
D03*
Y532270D02*
D03*
X225000Y637270D02*
D03*
Y622730D02*
D03*
X165000Y527270D02*
D03*
Y512730D02*
D03*
D26*
X577270Y1000000D02*
D03*
X562730D02*
D03*
X217270Y830000D02*
D03*
X202730D02*
D03*
X622730Y155000D02*
D03*
X637270D02*
D03*
X952730Y430000D02*
D03*
X967270D02*
D03*
D27*
X332095Y748000D02*
D03*
X344905D02*
D03*
D28*
X636000Y880011D02*
D03*
Y864489D02*
D03*
X440750Y879261D02*
D03*
Y863739D02*
D03*
D29*
X148750Y200000D02*
D03*
X111250D02*
D03*
X148750Y250000D02*
D03*
X111250D02*
D03*
X148750Y300000D02*
D03*
X111250D02*
D03*
X148750Y350000D02*
D03*
X111250D02*
D03*
D30*
X988900Y163000D02*
D03*
X963500D02*
D03*
X938100D02*
D03*
X912700D02*
D03*
X887300D02*
D03*
X861900D02*
D03*
X836500D02*
D03*
X811100D02*
D03*
Y77000D02*
D03*
X836500D02*
D03*
X861900D02*
D03*
X887300D02*
D03*
X912700D02*
D03*
X938100D02*
D03*
X963500D02*
D03*
X988900D02*
D03*
D34*
X823000Y1100000D02*
D03*
X950000D02*
D03*
X924600D02*
D03*
X899200D02*
D03*
X873800D02*
D03*
X848400D02*
D03*
X797600D02*
D03*
X772200D02*
D03*
D35*
X450800Y112700D02*
D03*
Y100000D02*
D03*
X438100Y112700D02*
D03*
Y100000D02*
D03*
X425400Y112700D02*
D03*
Y100000D02*
D03*
X412700Y112700D02*
D03*
Y100000D02*
D03*
X400000Y112700D02*
D03*
Y100000D02*
D03*
D36*
X1027000Y952400D02*
D03*
X1001600D02*
D03*
X976200D02*
D03*
X950800D02*
D03*
X925400D02*
D03*
X900000D02*
D03*
X1027000Y800000D02*
D03*
X1001600D02*
D03*
X976200D02*
D03*
X950800D02*
D03*
X925400D02*
D03*
X900000D02*
D03*
D44*
X625000Y1105250D02*
D03*
X575000Y94750D02*
D03*
D45*
X600000Y1105250D02*
D03*
X575000D02*
D03*
X94750Y750000D02*
D03*
Y725000D02*
D03*
X600000Y94750D02*
D03*
X625000D02*
D03*
X1105250Y650000D02*
D03*
Y675000D02*
D03*
X94750Y550000D02*
D03*
Y525000D02*
D03*
D46*
X559000Y1085250D02*
D03*
X114750Y709000D02*
D03*
X641000Y114750D02*
D03*
X1085250Y691000D02*
D03*
X114750Y509000D02*
D03*
D47*
X94750Y775000D02*
D03*
X1105250Y625000D02*
D03*
X94750Y575000D02*
D03*
D55*
X396800Y447600D02*
D03*
Y473000D02*
D03*
Y498400D02*
D03*
Y511100D02*
D03*
Y523800D02*
D03*
Y536500D02*
D03*
Y549200D02*
D03*
Y485700D02*
D03*
Y460300D02*
D03*
Y599875D02*
D03*
Y574600D02*
D03*
Y612700D02*
D03*
Y587300D02*
D03*
Y561900D02*
D03*
Y739700D02*
D03*
Y727000D02*
D03*
Y714300D02*
D03*
Y701600D02*
D03*
Y688900D02*
D03*
Y676200D02*
D03*
Y663500D02*
D03*
Y650800D02*
D03*
Y625400D02*
D03*
Y638100D02*
D03*
X803200Y739700D02*
D03*
Y688900D02*
D03*
Y625400D02*
D03*
Y561900D02*
D03*
Y549200D02*
D03*
Y536500D02*
D03*
Y523800D02*
D03*
Y511100D02*
D03*
Y612700D02*
D03*
Y600125D02*
D03*
Y587300D02*
D03*
Y574600D02*
D03*
Y650800D02*
D03*
Y714300D02*
D03*
Y701600D02*
D03*
Y752400D02*
D03*
Y460300D02*
D03*
Y473000D02*
D03*
Y676200D02*
D03*
Y663500D02*
D03*
Y485700D02*
D03*
Y498400D02*
D03*
Y638100D02*
D03*
Y727000D02*
D03*
X612700Y396800D02*
D03*
X625400D02*
D03*
X460300D02*
D03*
X473000D02*
D03*
X485700D02*
D03*
X498400D02*
D03*
X511100D02*
D03*
X523800D02*
D03*
X536500D02*
D03*
X549200D02*
D03*
X561900D02*
D03*
X574600D02*
D03*
X752400D02*
D03*
X701600D02*
D03*
X714300D02*
D03*
X727000D02*
D03*
X739700D02*
D03*
X638100D02*
D03*
X650800D02*
D03*
X663500D02*
D03*
X676200D02*
D03*
X688900D02*
D03*
X587300D02*
D03*
X600125D02*
D03*
X638100Y803200D02*
D03*
X650800D02*
D03*
X663500D02*
D03*
X676200D02*
D03*
X688900D02*
D03*
X701600D02*
D03*
X714300D02*
D03*
X727000D02*
D03*
X739700D02*
D03*
X574600D02*
D03*
X587300D02*
D03*
X599875D02*
D03*
X612700D02*
D03*
X625400D02*
D03*
X511100D02*
D03*
X523800D02*
D03*
X536500D02*
D03*
X549200D02*
D03*
X561900D02*
D03*
X447600D02*
D03*
X460300D02*
D03*
X473000D02*
D03*
X485700D02*
D03*
X498400D02*
D03*
D56*
X396800Y752400D02*
D03*
X803200Y447600D02*
D03*
D57*
X447600Y396800D02*
D03*
X752400Y803200D02*
D03*
D58*
X217500Y122500D02*
D03*
D59*
X282500D02*
D03*
X217500Y77500D02*
D03*
X282500D02*
D03*
D60*
X1003250Y676150D02*
D03*
X933250Y737200D02*
D03*
D61*
X1003250Y650750D02*
D03*
X933250Y711800D02*
D03*
D62*
X1159000Y471000D02*
D03*
D63*
X1109000Y458500D02*
D03*
X1159000Y446000D02*
D03*
X1109000Y433500D02*
D03*
X1159000Y421000D02*
D03*
X1109000Y408500D02*
D03*
X1159000Y396000D02*
D03*
X1109000Y383500D02*
D03*
X1159000Y371000D02*
D03*
X1109000Y358500D02*
D03*
X1159000Y346000D02*
D03*
X1109000Y333500D02*
D03*
X1159000Y321000D02*
D03*
X1109000Y308500D02*
D03*
X1159000Y296000D02*
D03*
X1109000Y283500D02*
D03*
X1159000Y271000D02*
D03*
X1109000Y258500D02*
D03*
X1159000Y246000D02*
D03*
X1109000Y233500D02*
D03*
D64*
X597300Y955000D02*
D03*
X610000D02*
D03*
X205000Y747300D02*
D03*
Y760000D02*
D03*
X612700Y210000D02*
D03*
X600000D02*
D03*
X965000Y512700D02*
D03*
Y500000D02*
D03*
X225000Y542300D02*
D03*
Y555000D02*
D03*
D65*
X622700Y955000D02*
D03*
X587300Y210000D02*
D03*
D66*
X205000Y772700D02*
D03*
X965000Y487300D02*
D03*
X225000Y567700D02*
D03*
D67*
X985000Y1072500D02*
D03*
X865000Y697500D02*
D03*
X239000Y351750D02*
D03*
X230000Y1012500D02*
D03*
X267500Y610000D02*
D03*
X215000Y1075000D02*
D03*
X527500D02*
D03*
X590000Y607500D02*
D03*
X690000Y682500D02*
D03*
X820000Y795000D02*
D03*
X690000Y335000D02*
D03*
X765000Y370000D02*
D03*
X960000Y395000D02*
D03*
X910000Y410000D02*
D03*
X905000Y480000D02*
D03*
X990000Y465000D02*
D03*
X1105000Y770000D02*
D03*
X695000Y1125000D02*
D03*
X315000Y725000D02*
D03*
X615000Y590000D02*
D03*
X520000Y510000D02*
D03*
X570000Y560000D02*
D03*
X152000Y868500D02*
D03*
X147000Y987000D02*
D03*
X730250Y1073000D02*
D03*
X893500Y370250D02*
D03*
X602250Y658000D02*
D03*
X565250Y630750D02*
D03*
X1098250Y941250D02*
D03*
X781000Y813500D02*
D03*
X318250Y660000D02*
D03*
X985000Y870500D02*
D03*
X1081750Y731250D02*
D03*
X239750Y406250D02*
D03*
X112250Y411500D02*
D03*
X571250Y234750D02*
D03*
X513000Y163500D02*
D03*
X446500Y306750D02*
D03*
X388750Y280250D02*
D03*
X672750Y304000D02*
D03*
X677750Y998250D02*
D03*
X217750Y875000D02*
D03*
X441250Y914250D02*
D03*
X638250Y929500D02*
D03*
X773500Y863500D02*
D03*
X801500Y420250D02*
D03*
X885250Y419750D02*
D03*
X1004000Y734750D02*
D03*
X641750Y135250D02*
D03*
X415500Y301000D02*
D03*
X238000Y198250D02*
D03*
X237750Y248750D02*
D03*
X31250Y199250D02*
D03*
Y250250D02*
D03*
Y300000D02*
D03*
X31500Y350500D02*
D03*
X882500Y650750D02*
D03*
X612750Y314000D02*
D03*
X478750Y307750D02*
D03*
X486500Y914250D02*
D03*
X520750Y914500D02*
D03*
X555750Y940000D02*
D03*
X589750Y914250D02*
D03*
X677500Y917000D02*
D03*
X721250Y916500D02*
D03*
X311250Y474500D02*
D03*
X300250Y525000D02*
D03*
X299500Y571250D02*
D03*
X290750Y702750D02*
D03*
X288750Y748500D02*
D03*
X291000Y795250D02*
D03*
X901500Y677250D02*
D03*
X998250Y603000D02*
D03*
X965250Y575250D02*
D03*
X908500Y612500D02*
D03*
X957000Y612000D02*
D03*
X1015000Y215000D02*
D03*
X987500D02*
D03*
X960000D02*
D03*
X930000D02*
D03*
X900000D02*
D03*
X870000D02*
D03*
X840000D02*
D03*
X810000D02*
D03*
X1000000Y300000D02*
D03*
X975000D02*
D03*
X945000D02*
D03*
X915000D02*
D03*
X885000D02*
D03*
X855000D02*
D03*
X825000D02*
D03*
X795000D02*
D03*
D68*
X1150000Y50000D02*
D03*
Y1150000D02*
D03*
X50000D02*
D03*
Y50000D02*
D03*
M02*
