G04*
G04 #@! TF.GenerationSoftware,Altium Limited,Altium Designer,22.9.1 (49)*
G04*
G04 Layer_Physical_Order=2*
G04 Layer_Color=36540*
%FSLAX44Y44*%
%MOMM*%
G71*
G04*
G04 #@! TF.SameCoordinates,63DD9504-EA5A-40A3-A547-44A0B6CD77F8*
G04*
G04*
G04 #@! TF.FilePolarity,Positive*
G04*
G01*
G75*
%ADD11C,0.5080*%
%ADD13C,0.2540*%
%ADD34C,1.5748*%
%ADD35C,1.1684*%
%ADD36C,1.3208*%
%ADD55C,1.0000*%
%ADD63C,1.3000*%
%ADD64C,1.0500*%
%ADD67C,1.2700*%
D11*
X267750Y725000D02*
X315000D01*
X232750Y760000D02*
X267750Y725000D01*
X205000Y760000D02*
X232750D01*
X611000Y956000D02*
Y1008000D01*
X703000Y1100000D01*
X772200D01*
X400000Y81500D02*
Y100000D01*
Y81500D02*
X427750Y53750D01*
X465750D01*
X547250Y135250D01*
X641750D01*
D13*
X824500Y697500D02*
X865000D01*
X803200Y676200D02*
X824500Y697500D01*
X215000Y1027500D02*
X230000Y1012500D01*
X215000Y1027500D02*
Y1075000D01*
X690000Y682500D02*
X701600Y694100D01*
Y803200D01*
X795000Y775000D02*
X815000D01*
X820000Y780000D01*
Y795000D01*
X755000Y735000D02*
X795000Y775000D01*
X832750Y815000D02*
X887500Y760250D01*
X805000Y815000D02*
X832750D01*
X887500Y760250D02*
X1006750D01*
Y761500D01*
X730000Y740000D02*
X805000Y815000D01*
X688900Y396800D02*
Y423900D01*
X755000Y490000D02*
Y735000D01*
X688900Y423900D02*
X755000Y490000D01*
X730000Y489500D02*
Y740000D01*
X687000Y446500D02*
X730000Y489500D01*
X690000Y275000D02*
Y335000D01*
X625779Y210779D02*
X690000Y275000D01*
X613479Y210779D02*
X625779D01*
X612700Y210000D02*
X613479Y210779D01*
X765000Y370000D02*
X765250D01*
X774500Y379250D01*
X960000Y215000D02*
Y395000D01*
X910000Y410000D02*
Y442400D01*
X905000Y480000D02*
Y520375D01*
X910000Y525375D02*
Y563000D01*
X905000Y520375D02*
X910000Y525375D01*
X988750Y463750D02*
X990000Y465000D01*
X988750Y216250D02*
Y463750D01*
X987500Y215000D02*
X988750Y216250D01*
X1107000Y770000D02*
X1175750Y701250D01*
X1105000Y770000D02*
X1107000D01*
X695000Y1125000D02*
X721500Y1151500D01*
X725000D01*
X570000Y560000D02*
Y600000D01*
X565250Y604750D02*
Y630750D01*
Y604750D02*
X570000Y600000D01*
X549945Y509945D02*
X615000Y575000D01*
Y590000D01*
X520055Y509945D02*
X549945D01*
X520000Y510000D02*
X520055Y509945D01*
X565250Y630750D02*
X592500Y658000D01*
X602250D01*
X945250Y830750D02*
X985000Y870500D01*
X629750Y830750D02*
X945250D01*
X612700Y813700D02*
X629750Y830750D01*
X612700Y803200D02*
Y813700D01*
X1175750Y275750D02*
Y701250D01*
X1171000Y271000D02*
X1175750Y275750D01*
X1159000Y271000D02*
X1171000D01*
X1086750Y283500D02*
X1109000D01*
X1076750Y293500D02*
X1086750Y283500D01*
X1076750Y293500D02*
Y559750D01*
X1129250Y612250D01*
Y710500D01*
X1108500Y731250D02*
X1129250Y710500D01*
X1081750Y731250D02*
X1108500D01*
X725000Y1151500D02*
X1000750Y1151500D01*
X1059750Y1092500D01*
Y285250D02*
Y1092500D01*
Y285250D02*
X1086500Y258500D01*
X1109000D01*
X369500Y473000D02*
X396800D01*
X302750Y406250D02*
X369500Y473000D01*
X239750Y406250D02*
X302750D01*
X110250Y409500D02*
X112250Y411500D01*
X110250Y112500D02*
Y409500D01*
Y112500D02*
X187500Y35250D01*
X663250D01*
X706000Y78000D01*
X991000D01*
X1159000Y246000D01*
X166750Y359500D02*
Y796000D01*
X211750Y841000D01*
X306750D01*
X358000Y789750D01*
Y668500D02*
Y789750D01*
Y668500D02*
X375700Y650800D01*
X396800D01*
X166750Y359500D02*
X227750Y298500D01*
X259500D01*
X356750Y201250D01*
X505000D01*
X529750Y176500D01*
X681250D01*
X703500Y154250D01*
X1001500D01*
X1080750Y233500D01*
X1109000D01*
X649000Y280250D02*
X672750Y304000D01*
X388750Y280250D02*
X649000D01*
X652688Y446500D02*
X687000D01*
X645188Y454000D02*
X652688Y446500D01*
X549750D02*
X584062D01*
X591562Y454000D01*
X610000Y955000D02*
X611000Y956000D01*
X549200Y803200D02*
Y826450D01*
X587750Y865000D01*
X548250Y804150D02*
X549200Y803200D01*
X587750Y865000D02*
X742750D01*
X786000Y908250D01*
Y961400D01*
X924600Y1100000D01*
X587300Y803200D02*
X587750Y803650D01*
Y824750D01*
X610750Y847750D01*
X876500D01*
X950800Y922050D01*
Y952400D01*
X536500Y396800D02*
Y433250D01*
X549750Y446500D01*
X591562Y454000D02*
X645188D01*
X1006750Y761500D02*
X1027000Y781750D01*
Y800000D01*
X460000Y441750D02*
X460300Y441450D01*
Y396800D02*
Y441450D01*
X399500Y787500D02*
X460000Y727000D01*
Y441750D02*
Y727000D01*
X399500Y787500D02*
Y815250D01*
X424750Y840500D01*
X482800D01*
X597300Y955000D01*
X368350Y561900D02*
X396800D01*
X205000Y725250D02*
X368350Y561900D01*
X205000Y725250D02*
Y747300D01*
X783100Y638100D02*
X803200D01*
X774500Y629500D02*
X783100Y638100D01*
X774500Y379250D02*
Y629500D01*
X803200Y752400D02*
X845100D01*
X883500Y714000D01*
Y672100D02*
Y714000D01*
Y672100D02*
X930000Y625600D01*
X901500Y677250D02*
X902000Y677750D01*
X932000D01*
X998250Y611500D01*
Y603000D02*
Y611500D01*
X965000Y575000D02*
X965250Y575250D01*
X965000Y512700D02*
Y575000D01*
X803200Y625400D02*
X895600D01*
X908500Y612500D01*
X957000Y612000D02*
X1015000Y554000D01*
Y215000D02*
Y554000D01*
X803200Y587300D02*
X803250Y587250D01*
X885750D01*
X910000Y563000D01*
X803200Y549200D02*
X812050D01*
X839250Y522000D01*
Y513150D02*
Y522000D01*
Y513150D02*
X910000Y442400D01*
X803200Y511100D02*
X815400D01*
X870000Y456500D01*
X803200Y473000D02*
X803700Y472500D01*
X822500D01*
X840000Y455000D01*
X930000Y215000D02*
Y625600D01*
X870000Y292500D02*
Y456500D01*
Y292500D02*
X900000Y262500D01*
Y215000D02*
Y262500D01*
X803000Y473000D02*
X803200D01*
X840000Y275000D02*
Y455000D01*
Y275000D02*
X870000Y245000D01*
Y215000D02*
Y245000D01*
X739700Y332800D02*
Y396800D01*
Y332800D02*
X840000Y232500D01*
Y215000D02*
Y232500D01*
X714300Y338200D02*
Y396800D01*
Y338200D02*
X810000Y242500D01*
Y215000D02*
Y242500D01*
D34*
X924600Y1100000D02*
D03*
X772200D02*
D03*
D35*
X400000Y100000D02*
D03*
D36*
X950800Y952400D02*
D03*
X1027000Y800000D02*
D03*
D55*
X396800Y473000D02*
D03*
Y561900D02*
D03*
Y650800D02*
D03*
X803200Y625400D02*
D03*
Y549200D02*
D03*
Y511100D02*
D03*
Y587300D02*
D03*
Y752400D02*
D03*
Y473000D02*
D03*
Y676200D02*
D03*
Y638100D02*
D03*
X460300Y396800D02*
D03*
X536500D02*
D03*
X714300D02*
D03*
X739700D02*
D03*
X688900D02*
D03*
X701600Y803200D02*
D03*
X587300D02*
D03*
X612700D02*
D03*
X549200D02*
D03*
D63*
X1109000Y283500D02*
D03*
X1159000Y271000D02*
D03*
X1109000Y258500D02*
D03*
X1159000Y246000D02*
D03*
X1109000Y233500D02*
D03*
D64*
X597300Y955000D02*
D03*
X610000D02*
D03*
X205000Y747300D02*
D03*
Y760000D02*
D03*
X612700Y210000D02*
D03*
X965000Y512700D02*
D03*
D67*
X865000Y697500D02*
D03*
X230000Y1012500D02*
D03*
X215000Y1075000D02*
D03*
X690000Y682500D02*
D03*
X820000Y795000D02*
D03*
X690000Y335000D02*
D03*
X765000Y370000D02*
D03*
X960000Y395000D02*
D03*
X910000Y410000D02*
D03*
X905000Y480000D02*
D03*
X990000Y465000D02*
D03*
X1105000Y770000D02*
D03*
X695000Y1125000D02*
D03*
X315000Y725000D02*
D03*
X615000Y590000D02*
D03*
X520000Y510000D02*
D03*
X570000Y560000D02*
D03*
X602250Y658000D02*
D03*
X565250Y630750D02*
D03*
X985000Y870500D02*
D03*
X1081750Y731250D02*
D03*
X239750Y406250D02*
D03*
X112250Y411500D02*
D03*
X388750Y280250D02*
D03*
X672750Y304000D02*
D03*
X641750Y135250D02*
D03*
X901500Y677250D02*
D03*
X998250Y603000D02*
D03*
X965250Y575250D02*
D03*
X908500Y612500D02*
D03*
X957000Y612000D02*
D03*
X1015000Y215000D02*
D03*
X987500D02*
D03*
X960000D02*
D03*
X930000D02*
D03*
X900000D02*
D03*
X870000D02*
D03*
X840000D02*
D03*
X810000D02*
D03*
M02*
