M48
;Layer_Color=9474304
;FILE_FORMAT=4:4
METRIC,LZ
;TYPE=PLATED
T1F00S00C0.7112
T2F00S00C0.7900
T3F00S00C0.8000
T4F00S00C0.9000
T5F00S00C1.0000
T6F00S00C1.0668
T7F00S00C1.1000
T8F00S00C3.4000
;TYPE=NON_PLATED
T9F00S00C1.1000
%
T01
X0003125Y0019925
Y0025025
Y003
X000315Y003505
X00239Y0035175
X0023775Y0024875
X00238Y0019825
X0038875Y0028025
X004155Y00301
X004465Y0030675
X0047875Y0030775
X0061275Y00314
X0067275Y00304
X0069Y00335
X00765Y0037
X0057125Y0023475
X00513Y001635
X004508Y001127
Y001
X004381
Y001127
X004254
Y001
X004127
Y001127
X004
Y001
X0064175Y0013525
X0081Y00215
X0084
X0087
X009
X0093
X0096
X009875
X01015
X01Y003
X00975
X00945
X00915
X00885
X00855
X00825
X00795
X008935Y0037025
X0096Y00395
X0091Y0041
X0088525Y0041975
X00905Y0048
X0099Y00465
X0096525Y0057525
X00957Y00612
X009085Y006125
X008825Y0065075
X009015Y0067725
X00865Y006975
X01004Y0073475
X0108175Y0073125
X01105Y0077
X0099825Y00603
X008015Y0042025
X00615Y0059
X0059Y006075
X0056525Y0063075
X0060225Y00658
X0069Y006825
X0057Y0056
X0052Y0051
X0030025Y00525
X002995Y0057125
X002675Y0061
X0031825Y0066
X00315Y00725
X0029075Y0070275
X0028875Y007485
X0031125Y004745
X0023975Y0040625
X0011225Y004115
X00152Y008685
X0021775Y00875
X0023Y010125
X00215Y01075
X00147Y00987
X00291Y0079525
X0044125Y0091425
X004865
X0052075Y009145
X0055575Y0094
X0058975Y0091425
X0063825Y009295
X006775Y00917
X0072125Y009165
X007735Y008635
X00781Y008135
X0067775Y0099825
X0073025Y01073
X00695Y01125
X005275Y01075
X00985Y010725
Y008705
X0109825Y0094125
X0082Y00795
T02
X004476Y003968
X004603
X00473
X004857
X004984
X005111
X005238
X005365
X005492
X005619
X005746
X005873
X00600125
X006127
X006254
X006381
X006508
X006635
X006762
X006889
X007016
X007143
X00727
X007397
X007524
X008032Y004476
Y004603
Y00473
Y004857
Y004984
Y005111
Y005238
Y005365
Y005492
Y005619
Y005746
Y005873
Y00600125
Y006127
Y006254
Y006381
Y006508
Y006635
Y006762
Y006889
Y007016
Y007143
Y00727
Y007397
Y007524
X003968
Y007397
Y00727
Y007143
Y007016
Y006889
Y006762
Y006635
Y006508
Y006381
Y006254
Y006127
Y00599875
Y005873
Y005746
Y005619
Y005492
Y005365
Y005238
Y005111
Y004984
Y004857
Y00473
Y004603
Y004476
X004476Y008032
X004603
X00473
X004857
X004984
X005111
X005238
X005365
X005492
X005619
X005746
X005873
X00599875
X006127
X006254
X006381
X006508
X006635
X006762
X006889
X007016
X007143
X00727
X007397
X007524
T03
X005873Y0021
X006
X006127
X01109Y002335
Y002585
Y002835
Y003085
Y003335
Y003585
Y003835
X01159Y00396
Y00371
Y00346
Y00321
Y00296
Y00271
Y00246
Y00421
Y00446
Y00471
X01109Y004585
Y004335
Y004085
X00965Y004873
Y005
Y005127
X00225Y005423
Y00555
Y005677
X00205Y007473
Y0076
Y007727
X005973Y00955
X0061
X006227
T04
X00575Y0009475
X006
X00625
X0110525Y00625
Y0065
Y00675
X0009475Y00725
Y0075
Y00775
Y00575
Y0055
Y00525
X00575Y0110525
X006
X00625
T05
X002175Y000775
Y001225
X002825
Y000775
T06
X007722Y011
X007976
X00823
X008484
X008738
X008992
X009246
X0095
X009508Y009524
X009762
X010016
X01027
X009254
X009
Y008
X009254
X009508
X009762
X010016
X01027
T07
X0093325Y007118
Y007372
X0100325Y0067615
Y0065075
T08
X0005Y0005
X0115
X0005Y0115
X0115
T09
X00641Y0011475
X0108525Y00691
X0011475Y00709
Y00509
X00559Y0108525
M30
